<svg width="17" height="12" viewBox="0 0 17 12" fill="none" xmlns="http://www.w3.org/2000/svg">
    <path
        d="M4.74219 1.17847C5.19044 0.579558 6.01438 0.418707 6.65137 0.80542L14.3799 5.49878C13.4681 6.1264 13 7.24249 13 8.23511C11.0001 7.23514 9.00014 8.99982 9 10.7351C9 10.9818 9.01321 11.2041 9.03125 11.405H2.04297C1.24084 11.405 0.589844 10.7483 0.589844 9.93921V7.21851C0.589872 6.89927 0.692137 6.5895 0.882812 6.33569L4.74219 1.17847Z"
        fill="#654434" />
    <path
        d="M4.26172 0.800903C4.877 -0.0209762 6.00916 -0.242384 6.88477 0.289185L14.9609 5.1925C14.567 5.34344 14.2317 5.57544 13.9551 5.85754L6.32324 1.22278C5.92504 0.981339 5.41006 1.08158 5.12891 1.45715L1.26953 6.61536L1.26855 6.61633C1.20492 6.70128 1.15774 6.79739 1.12695 6.89856H13.2725C13.0916 7.33273 13 7.79566 13 8.2345C11.0002 7.23467 9.00036 8.99932 9 10.7345C9 11.2054 9.03575 11.588 9.09668 11.9015H1.99609C0.893011 11.9015 0.000601791 10.9989 0 9.89075V7.17004C1.7449e-05 6.73369 0.141025 6.30755 0.40332 5.95813L4.26172 0.800903Z"
        fill="#140802" />
    <path d="M12.5 8C13 5.5 14 5.33333 14.5 5" stroke="black" />
    <path d="M12.5 11.0005L12 9.5L14 10.0005L12.5 11.0005Z" fill="#31180C" />
    <path d="M15.5 10.0002L15 8L16.5 8.5V9.5L15.5 10.0002Z" fill="#31180C" />
    <path d="M15 11H16V12H15V11Z" fill="#31180C" />
</svg>