<svg id="visual" viewBox="0 0 900 600" width="900" height="600" xmlns="http://www.w3.org/2000/svg" xmlns:xlink="http://www.w3.org/1999/xlink" version="1.1"><path d="M0 520L21.5 519.3C43 518.7 86 517.3 128.8 526.8C171.7 536.3 214.3 556.7 257.2 560.2C300 563.7 343 550.3 385.8 545.5C428.7 540.7 471.3 544.3 514.2 550.8C557 557.3 600 566.7 642.8 566.7C685.7 566.7 728.3 557.3 771.2 553.2C814 549 857 550 878.5 550.5L900 551L900 601L878.5 601C857 601 814 601 771.2 601C728.3 601 685.7 601 642.8 601C600 601 557 601 514.2 601C471.3 601 428.7 601 385.8 601C343 601 300 601 257.2 601C214.3 601 171.7 601 128.8 601C86 601 43 601 21.5 601L0 601Z" fill="#381c10" stroke-linecap="round" stroke-linejoin="miter"></path></svg>