<?xml version="1.0" encoding="UTF-8"?><svg id="uuid-6efc4937-ac9e-4251-8fa8-8ec84ac8380d" xmlns="http://www.w3.org/2000/svg" xmlns:xlink="http://www.w3.org/1999/xlink" viewBox="0 0 223.21 191.32"><defs><style>.uuid-94023a27-5589-45f7-a252-b8640c04df2c{fill:#b2b09b;}.uuid-94023a27-5589-45f7-a252-b8640c04df2c,.uuid-61df9538-bfcc-49ce-a337-9e9d8ba60027,.uuid-3f8ea723-0eed-45e2-8b57-4d5748fe727e,.uuid-8c991a60-e9fc-4b57-b0c0-9001c5b16217,.uuid-25087e7b-8537-4211-b026-c13e8bef4d52{stroke-width:0px;}.uuid-61df9538-bfcc-49ce-a337-9e9d8ba60027{fill:none;}.uuid-bf460d8f-8bc2-49ac-b1bc-d5ed70443215{clip-path:url(#uuid-fea20e6e-b298-4e60-a513-d100e5eefa80);}.uuid-3f8ea723-0eed-45e2-8b57-4d5748fe727e{fill:#140802;}.uuid-8c991a60-e9fc-4b57-b0c0-9001c5b16217{fill:#f4f4e4;}.uuid-25087e7b-8537-4211-b026-c13e8bef4d52{fill:#654434;}</style><clipPath id="uuid-fea20e6e-b298-4e60-a513-d100e5eefa80"><rect class="uuid-61df9538-bfcc-49ce-a337-9e9d8ba60027" x="31.58" y="27.14" width="160.04" height="112.97"/></clipPath></defs><ellipse class="uuid-8c991a60-e9fc-4b57-b0c0-9001c5b16217" cx="111.6" cy="95.66" rx="111.6" ry="95.66"/><path class="uuid-94023a27-5589-45f7-a252-b8640c04df2c" d="M111.6,139.64c-32.67,0-58.15-4.98-66.7-34.05,0,0,8.02,46,66.7,46,58.68,0,66.7-46,66.7-46-8.35,28.95-34.03,34.05-66.7,34.05Z"/><g class="uuid-bf460d8f-8bc2-49ac-b1bc-d5ed70443215"><path class="uuid-25087e7b-8537-4211-b026-c13e8bef4d52" d="M186.07,98.29v22.42c0,7.62-6.13,13.8-13.68,13.8H50.81c-7.55,0-13.68-6.18-13.68-13.8v-25.61c0-3.01.96-5.92,2.76-8.31l36.33-48.56c4.22-5.64,11.97-7.15,17.97-3.51l85.25,51.77c4.11,2.5,6.63,6.98,6.63,11.82v-.02Z"/><path class="uuid-3f8ea723-0eed-45e2-8b57-4d5748fe727e" d="M72.14,35.13c5.79-7.74,16.45-9.82,24.69-4.82l85.25,51.77h0c5.63,3.44,9.08,9.57,9.09,16.2v22.42c0,10.44-8.4,18.93-18.79,18.93H50.81c-10.39,0-18.79-8.49-18.79-18.93v-25.61c0-4.11,1.33-8.12,3.8-11.41l36.32-48.55ZM91.55,39.11c-3.75-2.27-8.6-1.33-11.24,2.21l-36.33,48.56h0c-.6.81-1.04,1.71-1.33,2.67h136.13c-.56-.64-1.21-1.2-1.96-1.65l-85.25-51.78Z"/></g></svg>