<?xml version="1.0" encoding="UTF-8"?><svg id="uuid-5cd97c2b-667d-43cd-afae-b2afc756d7c8" xmlns="http://www.w3.org/2000/svg" xmlns:xlink="http://www.w3.org/1999/xlink" viewBox="0 0 1952.47 285.99"><defs><style>.uuid-afd98901-b173-4023-90ff-b500fcf07bc4,.uuid-5633c7bb-257d-4d4b-b102-0e4bdbf084fc,.uuid-12998529-456b-4adb-8ddd-e01a4d7a433e{stroke:#140802;stroke-miterlimit:10;stroke-width:9.02px;}.uuid-afd98901-b173-4023-90ff-b500fcf07bc4,.uuid-3df3a24a-d411-432e-9c9e-547a757ef50e{fill:none;}.uuid-afd98901-b173-4023-90ff-b500fcf07bc4,.uuid-12998529-456b-4adb-8ddd-e01a4d7a433e{stroke-linecap:round;}.uuid-5633c7bb-257d-4d4b-b102-0e4bdbf084fc{fill:#e23445;}.uuid-7775708b-2a99-4384-97b5-5633f2de2f8c{clip-path:url(#uuid-3c44ae73-ccc7-4137-8629-f4bf41f33fc7);}.uuid-89515fc6-3e9c-4d2e-9789-962f577781bd{fill:#b2b09b;}.uuid-89515fc6-3e9c-4d2e-9789-962f577781bd,.uuid-3df3a24a-d411-432e-9c9e-547a757ef50e,.uuid-d3104b36-d122-4d9c-b981-3ac1ab373c83,.uuid-e4a6e35d-17f9-4366-b41a-e6658c25a881,.uuid-d6af37ab-5c0a-433d-b4e4-12e667597787{stroke-width:0px;}.uuid-12998529-456b-4adb-8ddd-e01a4d7a433e{fill:#edebd1;}.uuid-d3104b36-d122-4d9c-b981-3ac1ab373c83{fill:#140802;}.uuid-e4a6e35d-17f9-4366-b41a-e6658c25a881{fill:#f4f4e4;}.uuid-d6af37ab-5c0a-433d-b4e4-12e667597787{fill:#654434;}.uuid-af382502-618a-4ad3-9d66-8c885c3ad7ca{clip-path:url(#uuid-b55a031d-7374-4e29-a5cb-c4c8fedb2905);}</style><clipPath id="uuid-b55a031d-7374-4e29-a5cb-c4c8fedb2905"><rect class="uuid-3df3a24a-d411-432e-9c9e-547a757ef50e" x="466.98" y="74.29" width="160.47" height="113.28"/></clipPath><clipPath id="uuid-3c44ae73-ccc7-4137-8629-f4bf41f33fc7"><rect class="uuid-3df3a24a-d411-432e-9c9e-547a757ef50e" x="213.08" y="74.29" width="160.47" height="113.28"/></clipPath></defs><ellipse class="uuid-e4a6e35d-17f9-4366-b41a-e6658c25a881" cx="547.22" cy="142.99" rx="111.9" ry="95.92"/><path class="uuid-89515fc6-3e9c-4d2e-9789-962f577781bd" d="M547.22,187.09c-32.76,0-58.3-5-66.88-34.14,0,0,8.05,46.12,66.88,46.12,58.84,0,66.88-46.12,66.88-46.12-8.37,29.02-34.12,34.14-66.88,34.14Z"/><g class="uuid-af382502-618a-4ad3-9d66-8c885c3ad7ca"><path class="uuid-d6af37ab-5c0a-433d-b4e4-12e667597787" d="M621.89,145.63v22.48c0,7.64-6.14,13.83-13.71,13.83h-121.91c-7.57,0-13.71-6.2-13.71-13.83v-25.68c0-3.01.97-5.93,2.77-8.33l36.43-48.69c4.23-5.65,12.01-7.17,18.02-3.52l85.48,51.91c4.12,2.51,6.64,7,6.64,11.85v-.02Z"/><path class="uuid-d3104b36-d122-4d9c-b981-3ac1ab373c83" d="M507.65,82.3c5.81-7.76,16.5-9.85,24.76-4.83l85.48,51.91h0c5.64,3.45,9.11,9.6,9.12,16.24v22.48c0,10.46-8.43,18.98-18.84,18.98h-121.9c-10.42,0-18.84-8.52-18.84-18.98v-25.68c0-4.12,1.33-8.14,3.81-11.44l36.42-48.68ZM527.11,86.29c-3.76-2.28-8.62-1.33-11.27,2.21l-36.43,48.69h0c-.6.81-1.05,1.72-1.34,2.67h136.5c-.57-.64-1.22-1.2-1.96-1.66l-85.48-51.92Z"/></g><path class="uuid-12998529-456b-4adb-8ddd-e01a4d7a433e" d="M594.82,113.88c5.13-10.65,2.02-21.76-15.75-27.44-11.25-3.59-12.68-14.24-13.56-21.69-.1-.82-1.1-1.12-1.66-.52-12.86,14.06-31.62,17.68-39.8,33.22-10.07,19.14,7.06,27.12,26.23,28.29,12.96.79,38.48.71,44.54-11.86Z"/><ellipse class="uuid-e4a6e35d-17f9-4366-b41a-e6658c25a881" cx="293.32" cy="142.99" rx="111.9" ry="95.92"/><path class="uuid-89515fc6-3e9c-4d2e-9789-962f577781bd" d="M293.32,187.09c-32.76,0-58.3-5-66.88-34.14,0,0,8.05,46.12,66.88,46.12,58.84,0,66.88-46.12,66.88-46.12-8.37,29.02-34.12,34.14-66.88,34.14Z"/><g class="uuid-7775708b-2a99-4384-97b5-5633f2de2f8c"><path class="uuid-d6af37ab-5c0a-433d-b4e4-12e667597787" d="M367.98,145.63v22.48c0,7.64-6.14,13.83-13.71,13.83h-121.91c-7.57,0-13.71-6.2-13.71-13.83v-25.68c0-3.01.97-5.93,2.77-8.33l36.43-48.69c4.23-5.65,12.01-7.17,18.02-3.52l85.48,51.91c4.12,2.51,6.64,7,6.64,11.85v-.02Z"/><path class="uuid-d3104b36-d122-4d9c-b981-3ac1ab373c83" d="M253.75,82.3c5.81-7.76,16.5-9.85,24.76-4.83l85.48,51.91h0c5.64,3.45,9.11,9.6,9.12,16.24v22.48c0,10.46-8.43,18.98-18.84,18.98h-121.9c-10.42,0-18.84-8.52-18.84-18.98v-25.68c0-4.12,1.33-8.14,3.81-11.44l36.42-48.68ZM273.21,86.29c-3.76-2.28-8.62-1.33-11.27,2.21l-36.43,48.69h0c-.6.81-1.05,1.72-1.34,2.67h136.5c-.57-.64-1.22-1.2-1.96-1.66l-85.48-51.92Z"/></g><circle class="uuid-5633c7bb-257d-4d4b-b102-0e4bdbf084fc" cx="302.13" cy="100.05" r="24.28"/><path class="uuid-afd98901-b173-4023-90ff-b500fcf07bc4" d="M302.94,90.87c-8.15-16.11,3.86-30.68,16.9-31.62"/><path class="uuid-e4a6e35d-17f9-4366-b41a-e6658c25a881" d="M64.31,65.08c0-5.03,2.51-7.54,7.54-7.54h59.32c5.03,0,7.54,2.52,7.54,7.54,0,10.54-.05,21.06-.14,31.55-.1,10.49-.15,21.01-.15,31.55,0,16.05.09,32.15.29,48.3.19,16.15.29,32.3.29,48.44,0,5.03-2.52,7.54-7.54,7.54h-37.28c-5.03,0-7.54-2.51-7.54-7.54,0-17.89.07-35.75.22-53.59.15-17.84.22-35.66.22-53.45,0-1.84-1.14-2.76-3.41-2.76s-4.88.14-7.83.43c-2.95.29-5.56,0-7.83-.87-2.27-.87-3.41-3.09-3.41-6.67,0-7.15-.05-14.31-.14-21.47-.1-7.15-.14-14.31-.14-21.47Z"/><path class="uuid-e4a6e35d-17f9-4366-b41a-e6658c25a881" d="M785.29,235.97c-3.99,0-7.82-.69-11.46-2.07-3.65-1.38-7.33-3.75-11.05-7.12-3.72-3.37-7.54-8.23-11.46-14.56-3.92-6.33-8.16-14.52-12.7-24.57l-13.84,43.37c-.69,1.51-1.58,2.65-2.68,3.41-1.1.75-2.96,1.13-5.58,1.13-1.93,0-3.61-.41-5.06-1.24-1.45-.83-1.83-2.27-1.14-4.34l56.58-175.95c.69-2.2,1.62-3.65,2.79-4.34,1.17-.69,2.86-1.03,5.06-1.03s3.82.38,4.85,1.13c1.03.76,1.68,1.65,1.96,2.69.27,1.03.27,1.96,0,2.79l-30.15,92.73c6.47-7.16,13.08-12.7,19.83-16.62,6.74-3.92,13.22-5.89,19.41-5.89,5.64,0,10.12,1.69,13.42,5.06,3.3,3.38,4.96,7.74,4.96,13.11s-1.07,9.67-3.2,13.73c-2.14,4.06-5.1,7.68-8.88,10.84-3.79,3.17-8.05,5.96-12.8,8.36-4.75,2.41-9.74,4.47-14.97,6.2-5.23,1.72-10.4,3.13-15.49,4.23,3.85,7.99,7.3,14.35,10.33,19.1,3.03,4.75,5.89,8.33,8.57,10.74,2.68,2.41,5.37,4.06,8.05,4.96,2.69.9,5.54,1.34,8.57,1.34,1.65,0,2.79.66,3.41,1.96.62,1.31.72,2.79.31,4.44s-1.27,3.13-2.58,4.44c-1.31,1.31-2.99,1.96-5.06,1.96ZM741.71,178.35c6.33-.83,12.63-2.2,18.9-4.13,6.26-1.93,11.94-4.3,17.04-7.12,5.09-2.82,9.15-5.95,12.18-9.4,3.03-3.44,4.54-7.09,4.54-10.95,0-2.48-.69-4.37-2.06-5.68-1.38-1.31-3.44-1.96-6.2-1.96-3.58,0-7.57,1.24-11.98,3.72-4.41,2.48-9.09,5.99-14.04,10.53-4.96,4.54-10.12,9.98-15.49,16.31l-2.89,8.67Z"/><path class="uuid-e4a6e35d-17f9-4366-b41a-e6658c25a881" d="M852.4,235.97c-4.68,0-8.61-.79-11.77-2.38-3.17-1.58-5.54-3.89-7.12-6.92-1.58-3.03-2.34-6.57-2.27-10.64.07-4.06.93-8.64,2.58-13.73l48.53-148.28c.69-2.2,1.58-3.65,2.68-4.34,1.1-.69,2.82-1.03,5.16-1.03,3.3,0,5.44.52,6.4,1.55.96,1.03,1.1,2.65.41,4.85l-48.53,148.69c-2.34,7.02-2.89,12.01-1.65,14.97,1.24,2.96,4.47,4.44,9.71,4.44,1.51,0,2.61.66,3.3,1.96.69,1.31.89,2.79.62,4.44-.28,1.65-1.1,3.13-2.48,4.44-1.38,1.31-3.24,1.96-5.58,1.96Z"/><path class="uuid-e4a6e35d-17f9-4366-b41a-e6658c25a881" d="M922.41,235.97c-5.78,0-10.77-1.34-14.97-4.03-4.2-2.69-7.4-6.57-9.6-11.67-2.2-5.09-3.3-11.08-3.3-17.97,0-6.06.83-12.6,2.48-19.62,1.65-7.02,4.23-13.9,7.74-20.65,3.51-6.74,7.92-12.91,13.22-18.48,5.3-5.58,11.53-10.02,18.69-13.32,7.16-3.3,15.28-4.96,24.37-4.96,5.64,0,11.22,1.07,16.73,3.2,5.5,2.14,10.46,4.85,14.87,8.16l-2.48,11.56c-5.92-3.85-11.19-6.43-15.8-7.74-4.61-1.31-9.12-1.96-13.53-1.96-7.16,0-13.53,1.34-19.1,4.03-5.58,2.68-10.36,6.33-14.35,10.95-3.99,4.61-7.3,9.71-9.91,15.28-2.62,5.58-4.58,11.12-5.89,16.62-1.31,5.51-1.96,10.6-1.96,15.28s.65,8.61,1.96,11.77c1.31,3.17,3.23,5.65,5.78,7.43,2.55,1.79,5.75,2.68,9.6,2.68,4.82,0,9.88-1.68,15.18-5.06,5.3-3.37,10.67-8.36,16.11-14.97,5.44-6.61,10.64-14.73,15.59-24.37l3.72,8.47c-6.06,12.8-12.46,22.79-19.21,29.95-6.75,7.16-13.22,12.18-19.41,15.07-6.2,2.89-11.7,4.34-16.52,4.34ZM983.12,235.97c-4.68,0-8.54-.79-11.56-2.38-3.03-1.58-5.3-3.85-6.82-6.82-1.52-2.96-2.27-6.43-2.27-10.43s.76-8.33,2.27-13.01l23.54-71.87c.83-2.2,1.79-3.65,2.89-4.34,1.1-.69,2.75-1.03,4.96-1.03,3.3,0,5.44.59,6.4,1.75.96,1.17,1.03,2.86.21,5.06l-23.54,71.87c-2.2,6.75-2.55,11.5-1.03,14.25,1.51,2.75,4.47,4.13,8.88,4.13,1.65,0,2.79.66,3.41,1.96.62,1.31.83,2.79.62,4.44-.21,1.65-.96,3.13-2.27,4.44-1.31,1.31-3.2,1.96-5.68,1.96Z"/><path class="uuid-e4a6e35d-17f9-4366-b41a-e6658c25a881" d="M1051.89,235.97c-5.78,0-10.77-1.34-14.97-4.03-4.2-2.69-7.43-6.57-9.71-11.67-2.27-5.09-3.41-11.08-3.41-17.97,0-6.06.86-12.6,2.58-19.62,1.72-7.02,4.34-13.9,7.85-20.65,3.51-6.74,7.92-12.91,13.22-18.48,5.3-5.58,11.53-10.02,18.69-13.32,7.16-3.3,15.28-4.96,24.37-4.96,4.68,0,9.33.72,13.94,2.17,4.61,1.45,8.91,3.48,12.91,6.09l25.81-79.51c.83-2.2,1.79-3.65,2.89-4.34,1.1-.69,2.75-1.03,4.96-1.03,3.3,0,5.44.59,6.4,1.75.96,1.17,1.03,2.86.21,5.06l-48.53,148.28c-2.07,7.02-2.38,12.01-.93,14.97,1.45,2.96,5.2,4.44,11.26,4.44,1.37,0,2.38.66,2.99,1.96.62,1.31.79,2.79.52,4.44-.28,1.65-1.03,3.13-2.27,4.44-1.24,1.31-2.96,1.96-5.16,1.96-4.27,0-7.88-.55-10.84-1.65-2.96-1.1-5.3-2.65-7.02-4.65-1.72-1.99-2.96-4.37-3.72-7.12-.76-2.75-1-5.71-.72-8.88l.62-4.54c-4.82,6.89-9.81,12.26-14.97,16.11-5.16,3.86-10.05,6.61-14.66,8.26-4.61,1.65-8.71,2.48-12.29,2.48ZM1056.23,222.55c4.96,0,9.94-1.58,14.97-4.75,5.02-3.17,10.15-7.81,15.39-13.94,5.23-6.12,10.33-13.73,15.28-22.82l11.77-36.35c-4.54-2.34-8.67-3.96-12.39-4.85-3.72-.89-7.37-1.34-10.95-1.34-7.16,0-13.53,1.34-19.1,4.03s-10.4,6.33-14.46,10.95c-4.06,4.61-7.4,9.71-10.02,15.28-2.62,5.58-4.54,11.12-5.78,16.62-1.24,5.51-1.86,10.6-1.86,15.28s.62,8.61,1.86,11.77c1.24,3.17,3.17,5.65,5.78,7.43,2.61,1.79,5.78,2.68,9.5,2.68Z"/><path class="uuid-e4a6e35d-17f9-4366-b41a-e6658c25a881" d="M1184.26,235.97c-5.78,0-10.77-1.34-14.97-4.03-4.2-2.69-7.43-6.57-9.71-11.67-2.27-5.09-3.41-11.08-3.41-17.97,0-6.06.86-12.6,2.58-19.62,1.72-7.02,4.34-13.9,7.85-20.65,3.51-6.74,7.92-12.91,13.22-18.48,5.3-5.58,11.53-10.02,18.69-13.32,7.16-3.3,15.28-4.96,24.37-4.96,4.68,0,9.33.72,13.94,2.17,4.61,1.45,8.91,3.48,12.91,6.09l25.81-79.51c.83-2.2,1.79-3.65,2.89-4.34,1.1-.69,2.75-1.03,4.96-1.03,3.3,0,5.44.59,6.4,1.75.96,1.17,1.03,2.86.21,5.06l-48.53,148.28c-2.07,7.02-2.38,12.01-.93,14.97,1.45,2.96,5.2,4.44,11.26,4.44,1.37,0,2.38.66,2.99,1.96.62,1.31.79,2.79.52,4.44-.28,1.65-1.03,3.13-2.27,4.44-1.24,1.31-2.96,1.96-5.16,1.96-4.27,0-7.88-.55-10.84-1.65-2.96-1.1-5.3-2.65-7.02-4.65-1.72-1.99-2.96-4.37-3.72-7.12-.76-2.75-1-5.71-.72-8.88l.62-4.54c-4.82,6.89-9.81,12.26-14.97,16.11-5.16,3.86-10.05,6.61-14.66,8.26-4.61,1.65-8.71,2.48-12.29,2.48ZM1188.6,222.55c4.96,0,9.94-1.58,14.97-4.75,5.02-3.17,10.15-7.81,15.39-13.94,5.23-6.12,10.33-13.73,15.28-22.82l11.77-36.35c-4.54-2.34-8.67-3.96-12.39-4.85-3.72-.89-7.37-1.34-10.95-1.34-7.16,0-13.53,1.34-19.1,4.03s-10.4,6.33-14.46,10.95c-4.06,4.61-7.4,9.71-10.02,15.28-2.62,5.58-4.54,11.12-5.78,16.62-1.24,5.51-1.86,10.6-1.86,15.28s.62,8.61,1.86,11.77c1.24,3.17,3.17,5.65,5.78,7.43,2.61,1.79,5.78,2.68,9.5,2.68Z"/><path class="uuid-e4a6e35d-17f9-4366-b41a-e6658c25a881" d="M1364.55,235.97c-3.99,0-7.85-.69-11.56-2.07-3.72-1.38-7.4-3.75-11.05-7.12-3.65-3.37-7.43-8.23-11.36-14.56-3.92-6.33-8.16-14.52-12.7-24.57l-14.04,43.37c-.55,1.51-1.41,2.65-2.58,3.41-1.17.75-2.99,1.13-5.47,1.13-1.93,0-3.65-.41-5.16-1.24-1.52-.83-1.93-2.27-1.24-4.34l56.79-175.95c.69-2.2,1.58-3.65,2.68-4.34,1.1-.69,2.82-1.03,5.16-1.03,2.2,0,3.82.38,4.85,1.13,1.03.76,1.68,1.65,1.96,2.69.27,1.03.27,1.96,0,2.79l-30.15,92.73c6.47-7.16,13.08-12.7,19.83-16.62,6.74-3.92,13.22-5.89,19.41-5.89,5.64,0,10.12,1.69,13.42,5.06,3.3,3.38,4.96,7.74,4.96,13.11s-1.1,9.67-3.3,13.73c-2.2,4.06-5.2,7.68-8.98,10.84-3.79,3.17-8.05,5.96-12.8,8.36-4.75,2.41-9.71,4.47-14.87,6.2-5.16,1.72-10.36,3.13-15.59,4.23,3.85,7.99,7.33,14.35,10.43,19.1s5.99,8.33,8.67,10.74c2.69,2.41,5.33,4.06,7.95,4.96,2.61.9,5.44,1.34,8.47,1.34,1.65,0,2.79.66,3.41,1.96.62,1.31.72,2.79.31,4.44s-1.24,3.13-2.48,4.44c-1.24,1.31-2.89,1.96-4.96,1.96ZM1320.98,178.35c6.33-.83,12.6-2.2,18.79-4.13,6.2-1.93,11.84-4.3,16.93-7.12,5.09-2.82,9.19-5.95,12.29-9.4,3.1-3.44,4.65-7.09,4.65-10.95,0-2.48-.69-4.37-2.07-5.68-1.38-1.31-3.44-1.96-6.2-1.96-3.72,0-7.74,1.24-12.08,3.72s-8.98,5.99-13.94,10.53c-4.96,4.54-10.12,9.98-15.49,16.31l-2.89,8.67Z"/><path class="uuid-e4a6e35d-17f9-4366-b41a-e6658c25a881" d="M1434.76,235.97c-5.78,0-10.77-1.34-14.97-4.03-4.2-2.69-7.4-6.57-9.6-11.67-2.2-5.09-3.3-11.08-3.3-17.97,0-6.06.83-12.6,2.48-19.62,1.65-7.02,4.23-13.9,7.74-20.65,3.51-6.74,7.92-12.91,13.22-18.48,5.3-5.58,11.53-10.02,18.69-13.32,7.16-3.3,15.28-4.96,24.37-4.96,5.64,0,11.22,1.07,16.73,3.2,5.5,2.14,10.46,4.85,14.87,8.16l-2.48,11.56c-5.92-3.85-11.19-6.43-15.8-7.74-4.61-1.31-9.12-1.96-13.53-1.96-7.16,0-13.53,1.34-19.1,4.03-5.58,2.68-10.36,6.33-14.35,10.95-3.99,4.61-7.3,9.71-9.91,15.28-2.62,5.58-4.58,11.12-5.89,16.62-1.31,5.51-1.96,10.6-1.96,15.28s.65,8.61,1.96,11.77c1.31,3.17,3.23,5.65,5.78,7.43,2.55,1.79,5.75,2.68,9.6,2.68,4.82,0,9.88-1.68,15.18-5.06,5.3-3.37,10.67-8.36,16.11-14.97,5.44-6.61,10.64-14.73,15.59-24.37l3.72,8.47c-6.06,12.8-12.46,22.79-19.21,29.95-6.75,7.16-13.22,12.18-19.41,15.07-6.2,2.89-11.7,4.34-16.52,4.34ZM1495.48,235.97c-4.68,0-8.54-.79-11.56-2.38-3.03-1.58-5.3-3.85-6.82-6.82-1.52-2.96-2.27-6.43-2.27-10.43s.76-8.33,2.27-13.01l23.54-71.87c.83-2.2,1.79-3.65,2.89-4.34,1.1-.69,2.75-1.03,4.96-1.03,3.3,0,5.44.59,6.4,1.75.96,1.17,1.03,2.86.21,5.06l-23.54,71.87c-2.2,6.75-2.55,11.5-1.03,14.25,1.51,2.75,4.47,4.13,8.88,4.13,1.65,0,2.79.66,3.41,1.96.62,1.31.83,2.79.62,4.44-.21,1.65-.96,3.13-2.27,4.44-1.31,1.31-3.2,1.96-5.68,1.96Z"/><path class="uuid-e4a6e35d-17f9-4366-b41a-e6658c25a881" d="M1612.16,235.97c-3.99,0-7.85-.69-11.56-2.07-3.72-1.38-7.4-3.75-11.05-7.12-3.65-3.37-7.43-8.23-11.36-14.56-3.92-6.33-8.16-14.52-12.7-24.57l-14.04,43.37c-.55,1.51-1.41,2.65-2.58,3.41-1.17.75-2.99,1.13-5.47,1.13-1.93,0-3.65-.41-5.16-1.24-1.52-.83-1.93-2.27-1.24-4.34l56.79-175.95c.69-2.2,1.58-3.65,2.68-4.34,1.1-.69,2.82-1.03,5.16-1.03,2.2,0,3.82.38,4.85,1.13,1.03.76,1.68,1.65,1.96,2.69.27,1.03.27,1.96,0,2.79l-30.15,92.73c6.47-7.16,13.08-12.7,19.83-16.62,6.74-3.92,13.22-5.89,19.41-5.89,5.64,0,10.12,1.69,13.42,5.06,3.3,3.38,4.96,7.74,4.96,13.11s-1.1,9.67-3.3,13.73c-2.2,4.06-5.2,7.68-8.98,10.84-3.79,3.17-8.05,5.96-12.8,8.36-4.75,2.41-9.71,4.47-14.87,6.2-5.16,1.72-10.36,3.13-15.59,4.23,3.85,7.99,7.33,14.35,10.43,19.1s5.99,8.33,8.67,10.74c2.69,2.41,5.33,4.06,7.95,4.96,2.61.9,5.44,1.34,8.47,1.34,1.65,0,2.79.66,3.41,1.96.62,1.31.72,2.79.31,4.44s-1.24,3.13-2.48,4.44c-1.24,1.31-2.89,1.96-4.96,1.96ZM1568.58,178.35c6.33-.83,12.6-2.2,18.79-4.13,6.2-1.93,11.84-4.3,16.93-7.12,5.09-2.82,9.19-5.95,12.29-9.4,3.1-3.44,4.65-7.09,4.65-10.95,0-2.48-.69-4.37-2.07-5.68-1.38-1.31-3.44-1.96-6.2-1.96-3.72,0-7.74,1.24-12.08,3.72s-8.98,5.99-13.94,10.53c-4.96,4.54-10.12,9.98-15.49,16.31l-2.89,8.67Z"/><path class="uuid-e4a6e35d-17f9-4366-b41a-e6658c25a881" d="M1693.52,236.38c-8.12,0-15.01-1.69-20.65-5.06-5.65-3.37-9.88-8.05-12.7-14.04-2.82-5.99-4.23-12.77-4.23-20.34s1.31-15.31,3.92-23.65c2.61-8.33,6.54-16.14,11.77-23.44,5.23-7.29,11.74-13.22,19.52-17.76,7.78-4.54,16.9-6.81,27.36-6.81,7.98,0,14.77,1.58,20.34,4.75,5.58,3.17,9.77,7.61,12.6,13.32,2.82,5.71,4.23,12.36,4.23,19.93,0,5.65-.79,11.74-2.38,18.28-1.58,6.54-3.99,13.05-7.23,19.52-3.24,6.47-7.33,12.36-12.29,17.66-4.96,5.3-10.81,9.57-17.55,12.8-6.75,3.23-14.32,4.85-22.72,4.85ZM1695.18,222.96c7.43,0,13.97-1.93,19.62-5.78,5.64-3.85,10.36-8.81,14.15-14.87,3.78-6.06,6.64-12.39,8.57-19,1.93-6.61,2.89-12.8,2.89-18.59s-.93-10.19-2.79-14.04c-1.86-3.85-4.54-6.81-8.05-8.88s-7.74-3.1-12.7-3.1c-7.43,0-14.01,1.89-19.72,5.68-5.71,3.79-10.5,8.64-14.35,14.56-3.86,5.92-6.75,12.18-8.67,18.79-1.93,6.61-2.89,12.67-2.89,18.17s.93,10.5,2.79,14.56c1.86,4.06,4.61,7.16,8.26,9.29,3.65,2.14,7.95,3.2,12.91,3.2Z"/><path class="uuid-e4a6e35d-17f9-4366-b41a-e6658c25a881" d="M1782.32,235.56c-1.93,0-3.61-.41-5.06-1.24-1.45-.83-1.83-2.34-1.14-4.54l31.8-98.3c.83-2.2,1.79-3.65,2.89-4.34,1.1-.69,2.75-1.03,4.96-1.03,3.3,0,5.44.55,6.4,1.65.96,1.1,1.03,2.75.21,4.96l-6.4,20.03c3.58-4.96,7.23-9.16,10.95-12.6,3.72-3.44,7.4-6.26,11.05-8.47,3.65-2.2,7.19-3.82,10.64-4.85,3.44-1.03,6.81-1.55,10.12-1.55,3.72,0,7.09.59,10.12,1.75,3.03,1.17,5.44,2.58,7.23,4.23,1.1,1.1,1.68,2.27,1.76,3.51.07,1.24-.59,2.89-1.96,4.96-1.38,1.79-2.65,2.89-3.82,3.3-1.17.41-2.37.28-3.61-.41-2.2-1.38-4.34-2.41-6.4-3.1-2.07-.69-4.34-1.03-6.81-1.03-3.86,0-7.85.96-11.98,2.89-4.13,1.93-8.36,4.79-12.7,8.57-4.34,3.79-8.57,8.47-12.7,14.04s-8.05,12.08-11.77,19.52l-15.49,47.5c-.55,1.51-1.45,2.65-2.68,3.41-1.24.75-3.1,1.13-5.58,1.13Z"/></svg>