<?xml version="1.0" encoding="UTF-8"?><svg id="uuid-fa3dd709-f0a0-4006-b3e0-1b438930c48a" xmlns="http://www.w3.org/2000/svg" xmlns:xlink="http://www.w3.org/1999/xlink" viewBox="0 0 970.06 514.82"><defs><style>.uuid-5bc8d57c-0893-4bbc-aef6-e8070d1739f1,.uuid-79374c94-548d-41dd-9699-4fa416e83a7f{stroke-linecap:round;}.uuid-5bc8d57c-0893-4bbc-aef6-e8070d1739f1,.uuid-79374c94-548d-41dd-9699-4fa416e83a7f,.uuid-5b7182f0-a44f-495a-8716-333a8fec191b{stroke:#140802;stroke-miterlimit:10;stroke-width:14.51px;}.uuid-5bc8d57c-0893-4bbc-aef6-e8070d1739f1,.uuid-daa3908d-20cb-4f8a-9600-46221df9e79c{fill:none;}.uuid-79374c94-548d-41dd-9699-4fa416e83a7f{fill:#edebd1;}.uuid-5b7182f0-a44f-495a-8716-333a8fec191b{fill:#e23445;}.uuid-4256f793-c99b-45c3-abdc-c89309a296ec{fill:#b2b09b;}.uuid-4256f793-c99b-45c3-abdc-c89309a296ec,.uuid-daa3908d-20cb-4f8a-9600-46221df9e79c,.uuid-a853924a-85ce-4037-975f-5e9ede602574,.uuid-9acd07e5-dfdb-4d1a-9500-2aaf9ff0faa7,.uuid-5f8debb7-e6c0-4072-94c1-8943a880b028{stroke-width:0px;}.uuid-a853924a-85ce-4037-975f-5e9ede602574{fill:#140802;}.uuid-9acd07e5-dfdb-4d1a-9500-2aaf9ff0faa7{fill:#f4f4e4;}.uuid-ae209c71-c673-445e-a83e-6242b9feca00{clip-path:url(#uuid-b5e70d06-6f00-4247-86c0-2246a61a691f);}.uuid-5f8debb7-e6c0-4072-94c1-8943a880b028{fill:#654434;}.uuid-76c7cc94-4f1a-4590-b959-016d6b98e794{clip-path:url(#uuid-1378792d-2696-4558-8070-21709826e650);}</style><clipPath id="uuid-1378792d-2696-4558-8070-21709826e650"><rect class="uuid-daa3908d-20cb-4f8a-9600-46221df9e79c" x="653.34" y="43.75" width="258" height="182.12"/></clipPath><clipPath id="uuid-b5e70d06-6f00-4247-86c0-2246a61a691f"><rect class="uuid-daa3908d-20cb-4f8a-9600-46221df9e79c" x="245.12" y="43.75" width="258" height="182.12"/></clipPath></defs><ellipse class="uuid-9acd07e5-dfdb-4d1a-9500-2aaf9ff0faa7" cx="782.34" cy="154.21" rx="179.92" ry="154.21"/><path class="uuid-4256f793-c99b-45c3-abdc-c89309a296ec" d="M782.34,225.11c-52.67,0-93.74-8.03-107.54-54.89,0,0,12.94,74.15,107.54,74.15,94.6,0,107.54-74.15,107.54-74.15-13.46,46.66-54.86,54.89-107.54,54.89Z"/><g class="uuid-76c7cc94-4f1a-4590-b959-016d6b98e794"><path class="uuid-5f8debb7-e6c0-4072-94c1-8943a880b028" d="M902.39,158.45v36.15c0,12.28-9.88,22.24-22.05,22.24h-196c-12.17,0-22.05-9.96-22.05-22.24v-41.29c0-4.85,1.55-9.54,4.45-13.39l58.57-78.28c6.8-9.09,19.3-11.53,28.97-5.66l137.43,83.46c6.62,4.03,10.68,11.26,10.68,19.05v-.03Z"/><path class="uuid-a853924a-85ce-4037-975f-5e9ede602574" d="M718.73,56.64c9.34-12.47,26.52-15.83,39.81-7.77l137.44,83.46h0c9.07,5.54,14.65,15.43,14.66,26.11v36.15c0,16.82-13.55,30.52-30.29,30.52h-195.99c-16.75,0-30.29-13.69-30.29-30.52v-41.29c0-6.62,2.14-13.09,6.12-18.39l58.56-78.27ZM750.01,63.04c-6.04-3.66-13.86-2.14-18.13,3.56l-58.57,78.28h-.01c-.97,1.31-1.68,2.76-2.15,4.3h219.45c-.91-1.02-1.96-1.94-3.16-2.67l-137.44-83.47Z"/></g><path class="uuid-79374c94-548d-41dd-9699-4fa416e83a7f" d="M858.88,107.4c8.25-17.12,3.25-34.98-25.33-44.11-18.09-5.78-20.38-22.9-21.81-34.88-.16-1.31-1.78-1.81-2.67-.83-20.68,22.61-50.84,28.42-63.98,53.41-16.19,30.78,11.35,43.61,42.18,45.48,20.83,1.27,61.86,1.14,71.61-19.07Z"/><ellipse class="uuid-9acd07e5-dfdb-4d1a-9500-2aaf9ff0faa7" cx="374.12" cy="154.21" rx="179.92" ry="154.21"/><path class="uuid-4256f793-c99b-45c3-abdc-c89309a296ec" d="M374.12,225.11c-52.67,0-93.74-8.03-107.54-54.89,0,0,12.94,74.15,107.54,74.15,94.6,0,107.54-74.15,107.54-74.15-13.46,46.66-54.86,54.89-107.54,54.89Z"/><g class="uuid-ae209c71-c673-445e-a83e-6242b9feca00"><path class="uuid-5f8debb7-e6c0-4072-94c1-8943a880b028" d="M494.17,158.45v36.15c0,12.28-9.88,22.24-22.05,22.24h-196c-12.17,0-22.05-9.96-22.05-22.24v-41.29c0-4.85,1.55-9.54,4.45-13.39l58.57-78.28c6.8-9.09,19.3-11.53,28.97-5.66l137.43,83.46c6.62,4.03,10.68,11.26,10.68,19.05v-.03Z"/><path class="uuid-a853924a-85ce-4037-975f-5e9ede602574" d="M310.51,56.64c9.34-12.47,26.52-15.83,39.81-7.77l137.44,83.46h0c9.07,5.54,14.65,15.43,14.66,26.11v36.15c0,16.82-13.55,30.52-30.29,30.52h-195.99c-16.75,0-30.29-13.69-30.29-30.52v-41.29c0-6.62,2.14-13.09,6.12-18.39l58.56-78.27ZM341.8,63.04c-6.04-3.66-13.86-2.14-18.13,3.56l-58.57,78.28h-.01c-.97,1.31-1.68,2.76-2.15,4.3h219.45c-.91-1.02-1.96-1.94-3.16-2.67l-137.44-83.47Z"/></g><circle class="uuid-5b7182f0-a44f-495a-8716-333a8fec191b" cx="388.29" cy="85.17" r="39.03"/><path class="uuid-5bc8d57c-0893-4bbc-aef6-e8070d1739f1" d="M389.6,70.42c-13.11-25.91,6.2-49.33,27.18-50.83"/><path class="uuid-9acd07e5-dfdb-4d1a-9500-2aaf9ff0faa7" d="M5.94,28.95c0-8.08,4.04-12.13,12.13-12.13h95.37c8.08,0,12.13,4.05,12.13,12.13,0,16.95-.08,33.85-.23,50.72-.16,16.87-.23,33.78-.23,50.72,0,25.81.15,51.69.47,77.65.31,25.97.47,51.92.47,77.89,0,8.08-4.05,12.13-12.13,12.13h-59.93c-8.08,0-12.13-4.04-12.13-12.13,0-28.76.12-57.48.35-86.17.23-28.68.35-57.33.35-85.93,0-2.95-1.83-4.43-5.48-4.43s-7.85.23-12.59.7c-4.74.47-8.94,0-12.59-1.4-3.65-1.4-5.48-4.97-5.48-10.73,0-11.5-.08-23.01-.23-34.51-.16-11.5-.23-23.01-.23-34.51Z"/><path class="uuid-9acd07e5-dfdb-4d1a-9500-2aaf9ff0faa7" d="M62.9,514.82c-3.19,0-6.3-.6-9.32-1.8-3.02-1.2-6.01-3.22-8.98-6.07-2.97-2.85-5.98-6.84-9.06-11.97-3.08-5.13-6.27-11.68-9.58-19.67l-11.12,34.71c-.57,1.48-1.43,2.59-2.56,3.33-1.14.74-3.02,1.11-5.64,1.11-1.83,0-3.51-.4-5.04-1.2-1.54-.8-1.97-2.28-1.28-4.45l46.17-143.64c.68-2.28,1.57-3.76,2.65-4.45,1.08-.68,2.76-1.03,5.04-1.03,2.39,0,4.1.43,5.13,1.28,1.03.86,1.65,1.8,1.88,2.82.23,1.03.23,1.88,0,2.56l-23.6,73.02c4.79-5.02,9.8-8.95,15.05-11.8,5.24-2.85,10.32-4.27,15.22-4.27,4.45,0,8.12,1.4,11.03,4.19,2.91,2.79,4.36,6.64,4.36,11.54,0,3.99-.8,7.61-2.39,10.86-1.6,3.25-3.79,6.19-6.58,8.81-2.79,2.62-5.98,4.96-9.58,7.01-3.59,2.05-7.38,3.82-11.37,5.3-3.99,1.48-8.04,2.74-12.14,3.76,2.62,5.7,4.99,10.32,7.1,13.85,2.11,3.53,4.13,6.27,6.07,8.21,1.94,1.94,3.9,3.28,5.9,4.02,1.99.74,4.19,1.11,6.58,1.11,1.6,0,2.68.66,3.25,1.97.57,1.31.65,2.79.26,4.45-.4,1.65-1.23,3.14-2.48,4.45-1.26,1.31-2.91,1.97-4.96,1.97ZM29.04,466.09c5.13-.68,10.06-1.79,14.79-3.33,4.73-1.54,8.95-3.39,12.65-5.56,3.7-2.16,6.64-4.53,8.81-7.1,2.16-2.57,3.25-5.16,3.25-7.78,0-1.71-.49-3.02-1.45-3.93-.97-.91-2.37-1.37-4.19-1.37-2.62,0-5.62.94-8.98,2.82-3.36,1.88-6.98,4.56-10.86,8.04-3.88,3.48-7.92,7.61-12.14,12.4l-1.88,5.81Z"/><path class="uuid-9acd07e5-dfdb-4d1a-9500-2aaf9ff0faa7" d="M118.99,514.82c-4.22,0-7.7-.74-10.43-2.22-2.74-1.48-4.79-3.56-6.16-6.24-1.37-2.68-2.03-5.73-1.97-9.15.06-3.42.77-7.18,2.14-11.29l39.33-120.73c.8-2.28,1.74-3.76,2.82-4.45,1.08-.68,2.71-1.03,4.87-1.03,3.65,0,5.93.54,6.84,1.62.91,1.08,1.03,2.76.34,5.04l-39.5,121.07c-1.83,5.47-2.22,9.26-1.2,11.37,1.03,2.11,3.36,3.16,7.01,3.16,1.6,0,2.74.66,3.42,1.97.68,1.31.88,2.79.6,4.45-.29,1.65-1.11,3.14-2.48,4.45s-3.25,1.97-5.64,1.97Z"/><path class="uuid-9acd07e5-dfdb-4d1a-9500-2aaf9ff0faa7" d="M175.93,514.82c-4.9,0-9.12-1.11-12.65-3.33-3.53-2.22-6.24-5.44-8.12-9.66-1.88-4.22-2.82-9.18-2.82-14.88,0-5.01.71-10.43,2.14-16.25,1.42-5.81,3.59-11.51,6.5-17.1,2.91-5.58,6.55-10.69,10.94-15.3,4.39-4.62,9.55-8.29,15.48-11.03,5.93-2.74,12.65-4.1,20.18-4.1,4.9,0,9.69.94,14.36,2.82,4.67,1.88,8.89,4.25,12.65,7.1l-2.22,11.8c-4.9-3.19-9.26-5.36-13.08-6.5-3.82-1.14-7.61-1.71-11.37-1.71-5.81,0-10.92,1.08-15.3,3.25-4.39,2.17-8.15,5.07-11.29,8.72-3.14,3.65-5.7,7.64-7.7,11.97-2,4.33-3.48,8.64-4.45,12.91-.97,4.27-1.45,8.12-1.45,11.54s.51,6.47,1.54,8.81c1.03,2.34,2.51,4.13,4.45,5.39,1.94,1.26,4.33,1.88,7.18,1.88,3.99,0,8.09-1.42,12.31-4.27,4.22-2.85,8.46-6.98,12.74-12.4,4.28-5.41,8.35-11.83,12.23-19.24l3.76,7.52c-5.02,10.83-10.32,19.32-15.9,25.48-5.59,6.16-10.97,10.46-16.16,12.91-5.19,2.45-9.83,3.68-13.94,3.68ZM227.06,514.82c-4.33,0-7.87-.74-10.6-2.22-2.74-1.48-4.76-3.56-6.07-6.24-1.31-2.68-1.94-5.75-1.88-9.23.06-3.48.71-7.21,1.97-11.2l18.64-56.6c.8-2.28,1.74-3.76,2.82-4.45,1.08-.68,2.71-1.03,4.87-1.03,3.53,0,5.78.54,6.75,1.62.97,1.08,1.05,2.76.26,5.04l-18.64,56.94c-1.82,5.47-2.22,9.26-1.2,11.37,1.03,2.11,3.36,3.16,7.01,3.16,1.59,0,2.71.66,3.33,1.97.62,1.31.83,2.79.6,4.45-.23,1.65-1,3.14-2.31,4.45-1.31,1.31-3.16,1.97-5.56,1.97Z"/><path class="uuid-9acd07e5-dfdb-4d1a-9500-2aaf9ff0faa7" d="M282.46,514.82c-4.9,0-9.12-1.11-12.65-3.33-3.54-2.22-6.24-5.44-8.12-9.66-1.88-4.22-2.82-9.18-2.82-14.88,0-5.01.71-10.43,2.14-16.25,1.42-5.81,3.59-11.51,6.5-17.1,2.91-5.58,6.55-10.69,10.94-15.3,4.39-4.62,9.55-8.29,15.48-11.03,5.93-2.74,12.65-4.1,20.18-4.1,3.87,0,7.64.57,11.29,1.71,3.65,1.14,7.12,2.74,10.43,4.79l21.03-64.47c.8-2.28,1.74-3.76,2.82-4.45,1.08-.68,2.71-1.03,4.87-1.03,3.53,0,5.78.54,6.75,1.62.97,1.08,1.05,2.76.26,5.04l-39.5,121.07c-1.71,5.47-1.97,9.26-.77,11.37,1.2,2.11,4.3,3.16,9.32,3.16,1.37,0,2.36.66,2.99,1.97.62,1.31.8,2.79.51,4.45-.29,1.65-1.06,3.14-2.31,4.45-1.26,1.31-2.97,1.97-5.13,1.97-3.99,0-7.33-.51-10-1.54-2.68-1.03-4.79-2.42-6.33-4.19-1.54-1.77-2.65-3.79-3.33-6.07-.68-2.28-.97-4.62-.85-7.01l-.17-1.71c-3.88,5.25-7.87,9.35-11.97,12.31-4.1,2.97-8.01,5.07-11.71,6.33-3.71,1.25-6.98,1.88-9.83,1.88ZM287.25,501.14c3.99,0,7.98-1.31,11.97-3.93,3.99-2.62,8.01-6.38,12.06-11.29,4.05-4.9,8.01-10.77,11.88-17.61l8.89-27.36c-3.31-1.6-6.39-2.71-9.23-3.33-2.85-.62-5.7-.94-8.55-.94-5.7,0-10.77,1.08-15.22,3.25-4.45,2.17-8.24,5.07-11.37,8.72-3.14,3.65-5.7,7.64-7.7,11.97-2,4.33-3.45,8.64-4.36,12.91-.91,4.27-1.37,8.12-1.37,11.54s.48,6.47,1.45,8.81c.97,2.34,2.45,4.13,4.45,5.39,1.99,1.26,4.36,1.88,7.1,1.88Z"/><path class="uuid-9acd07e5-dfdb-4d1a-9500-2aaf9ff0faa7" d="M392.08,514.82c-4.9,0-9.12-1.11-12.65-3.33-3.54-2.22-6.24-5.44-8.12-9.66-1.88-4.22-2.82-9.18-2.82-14.88,0-5.01.71-10.43,2.14-16.25,1.42-5.81,3.59-11.51,6.5-17.1,2.91-5.58,6.55-10.69,10.94-15.3,4.39-4.62,9.55-8.29,15.48-11.03,5.93-2.74,12.65-4.1,20.18-4.1,3.87,0,7.64.57,11.29,1.71,3.65,1.14,7.12,2.74,10.43,4.79l21.03-64.47c.8-2.28,1.74-3.76,2.82-4.45,1.08-.68,2.71-1.03,4.87-1.03,3.53,0,5.78.54,6.75,1.62.97,1.08,1.05,2.76.26,5.04l-39.5,121.07c-1.71,5.47-1.97,9.26-.77,11.37,1.2,2.11,4.3,3.16,9.32,3.16,1.37,0,2.36.66,2.99,1.97.62,1.31.8,2.79.51,4.45-.29,1.65-1.06,3.14-2.31,4.45-1.26,1.31-2.97,1.97-5.13,1.97-3.99,0-7.33-.51-10-1.54-2.68-1.03-4.79-2.42-6.33-4.19-1.54-1.77-2.65-3.79-3.33-6.07-.68-2.28-.97-4.62-.85-7.01l-.17-1.71c-3.88,5.25-7.87,9.35-11.97,12.31-4.1,2.97-8.01,5.07-11.71,6.33-3.71,1.25-6.98,1.88-9.83,1.88ZM396.86,501.14c3.99,0,7.98-1.31,11.97-3.93,3.99-2.62,8.01-6.38,12.06-11.29,4.05-4.9,8.01-10.77,11.88-17.61l8.89-27.36c-3.31-1.6-6.39-2.71-9.23-3.33-2.85-.62-5.7-.94-8.55-.94-5.7,0-10.77,1.08-15.22,3.25-4.45,2.17-8.24,5.07-11.37,8.72-3.14,3.65-5.7,7.64-7.7,11.97-2,4.33-3.45,8.64-4.36,12.91-.91,4.27-1.37,8.12-1.37,11.54s.48,6.47,1.45,8.81c.97,2.34,2.45,4.13,4.45,5.39,1.99,1.26,4.36,1.88,7.1,1.88Z"/><path class="uuid-9acd07e5-dfdb-4d1a-9500-2aaf9ff0faa7" d="M542.56,514.82c-3.19,0-6.3-.6-9.32-1.8-3.02-1.2-6.01-3.22-8.98-6.07-2.97-2.85-5.99-6.84-9.06-11.97-3.08-5.13-6.27-11.68-9.58-19.67l-11.12,34.71c-.57,1.48-1.43,2.59-2.56,3.33-1.14.74-3.02,1.11-5.64,1.11-1.82,0-3.51-.4-5.04-1.2-1.54-.8-1.97-2.28-1.28-4.45l46.17-143.64c.68-2.28,1.57-3.76,2.65-4.45,1.08-.68,2.76-1.03,5.04-1.03,2.39,0,4.1.43,5.13,1.28,1.03.86,1.65,1.8,1.88,2.82.23,1.03.23,1.88,0,2.56l-23.6,73.02c4.79-5.02,9.8-8.95,15.05-11.8,5.24-2.85,10.32-4.27,15.22-4.27,4.45,0,8.12,1.4,11.03,4.19,2.91,2.79,4.36,6.64,4.36,11.54,0,3.99-.8,7.61-2.39,10.86-1.6,3.25-3.79,6.19-6.58,8.81-2.79,2.62-5.98,4.96-9.58,7.01-3.59,2.05-7.38,3.82-11.37,5.3-3.99,1.48-8.04,2.74-12.14,3.76,2.62,5.7,4.99,10.32,7.1,13.85,2.11,3.53,4.13,6.27,6.07,8.21,1.94,1.94,3.9,3.28,5.9,4.02,1.99.74,4.19,1.11,6.58,1.11,1.6,0,2.68.66,3.25,1.97.57,1.31.65,2.79.26,4.45-.4,1.65-1.23,3.14-2.48,4.45-1.26,1.31-2.91,1.97-4.96,1.97ZM508.7,466.09c5.13-.68,10.06-1.79,14.79-3.33,4.73-1.54,8.95-3.39,12.65-5.56,3.7-2.16,6.64-4.53,8.81-7.1,2.16-2.57,3.25-5.16,3.25-7.78,0-1.71-.49-3.02-1.45-3.93-.97-.91-2.37-1.37-4.19-1.37-2.62,0-5.62.94-8.98,2.82-3.36,1.88-6.98,4.56-10.86,8.04-3.88,3.48-7.93,7.61-12.14,12.4l-1.88,5.81Z"/><path class="uuid-9acd07e5-dfdb-4d1a-9500-2aaf9ff0faa7" d="M600.18,514.82c-4.9,0-9.12-1.11-12.65-3.33-3.53-2.22-6.24-5.44-8.12-9.66-1.88-4.22-2.82-9.18-2.82-14.88,0-5.01.71-10.43,2.14-16.25,1.42-5.81,3.59-11.51,6.5-17.1,2.91-5.58,6.55-10.69,10.94-15.3,4.39-4.62,9.55-8.29,15.48-11.03,5.93-2.74,12.65-4.1,20.18-4.1,4.9,0,9.69.94,14.36,2.82,4.67,1.88,8.89,4.25,12.65,7.1l-2.22,11.8c-4.9-3.19-9.26-5.36-13.08-6.5-3.82-1.14-7.61-1.71-11.37-1.71-5.81,0-10.92,1.08-15.3,3.25-4.39,2.17-8.15,5.07-11.29,8.72-3.14,3.65-5.7,7.64-7.7,11.97-2,4.33-3.48,8.64-4.45,12.91-.97,4.27-1.45,8.12-1.45,11.54s.51,6.47,1.54,8.81c1.03,2.34,2.51,4.13,4.45,5.39,1.94,1.26,4.33,1.88,7.18,1.88,3.99,0,8.09-1.42,12.31-4.27,4.22-2.85,8.46-6.98,12.74-12.4,4.28-5.41,8.35-11.83,12.23-19.24l3.76,7.52c-5.02,10.83-10.32,19.32-15.9,25.48-5.59,6.16-10.97,10.46-16.16,12.91-5.19,2.45-9.83,3.68-13.94,3.68ZM651.31,514.82c-4.33,0-7.87-.74-10.6-2.22-2.74-1.48-4.76-3.56-6.07-6.24-1.31-2.68-1.94-5.75-1.88-9.23.06-3.48.71-7.21,1.97-11.2l18.64-56.6c.8-2.28,1.74-3.76,2.82-4.45,1.08-.68,2.71-1.03,4.87-1.03,3.53,0,5.78.54,6.75,1.62.97,1.08,1.05,2.76.26,5.04l-18.64,56.94c-1.82,5.47-2.22,9.26-1.2,11.37,1.03,2.11,3.36,3.16,7.01,3.16,1.59,0,2.71.66,3.33,1.97.62,1.31.83,2.79.6,4.45-.23,1.65-1,3.14-2.31,4.45-1.31,1.31-3.16,1.97-5.56,1.97Z"/><path class="uuid-9acd07e5-dfdb-4d1a-9500-2aaf9ff0faa7" d="M747.59,514.82c-3.19,0-6.3-.6-9.32-1.8-3.02-1.2-6.01-3.22-8.98-6.07-2.97-2.85-5.99-6.84-9.06-11.97-3.08-5.13-6.27-11.68-9.58-19.67l-11.12,34.71c-.57,1.48-1.43,2.59-2.56,3.33-1.14.74-3.02,1.11-5.64,1.11-1.82,0-3.51-.4-5.04-1.2-1.54-.8-1.97-2.28-1.28-4.45l46.17-143.64c.68-2.28,1.57-3.76,2.65-4.45,1.08-.68,2.76-1.03,5.04-1.03,2.39,0,4.1.43,5.13,1.28,1.03.86,1.65,1.8,1.88,2.82.23,1.03.23,1.88,0,2.56l-23.6,73.02c4.79-5.02,9.8-8.95,15.05-11.8,5.24-2.85,10.32-4.27,15.22-4.27,4.45,0,8.12,1.4,11.03,4.19,2.91,2.79,4.36,6.64,4.36,11.54,0,3.99-.8,7.61-2.39,10.86-1.6,3.25-3.79,6.19-6.58,8.81-2.79,2.62-5.98,4.96-9.58,7.01-3.59,2.05-7.38,3.82-11.37,5.3-3.99,1.48-8.04,2.74-12.14,3.76,2.62,5.7,4.99,10.32,7.1,13.85,2.11,3.53,4.13,6.27,6.07,8.21,1.94,1.94,3.9,3.28,5.9,4.02,1.99.74,4.19,1.11,6.58,1.11,1.6,0,2.68.66,3.25,1.97.57,1.31.65,2.79.26,4.45-.4,1.65-1.23,3.14-2.48,4.45-1.26,1.31-2.91,1.97-4.96,1.97ZM713.73,466.09c5.13-.68,10.06-1.79,14.79-3.33,4.73-1.54,8.95-3.39,12.65-5.56,3.7-2.16,6.64-4.53,8.81-7.1,2.16-2.57,3.25-5.16,3.25-7.78,0-1.71-.49-3.02-1.45-3.93-.97-.91-2.37-1.37-4.19-1.37-2.62,0-5.62.94-8.98,2.82-3.36,1.88-6.98,4.56-10.86,8.04-3.88,3.48-7.93,7.61-12.14,12.4l-1.88,5.81Z"/><path class="uuid-9acd07e5-dfdb-4d1a-9500-2aaf9ff0faa7" d="M815.82,515.17c-7.07,0-13.05-1.43-17.96-4.28-4.9-2.85-8.58-6.81-11.03-11.88-2.45-5.07-3.68-10.8-3.68-17.19,0-6.04,1.08-12.45,3.25-19.24,2.16-6.78,5.39-13.17,9.66-19.15,4.27-5.99,9.63-10.86,16.07-14.62,6.44-3.76,13.94-5.64,22.49-5.64,7.07,0,13.02,1.34,17.87,4.02,4.84,2.68,8.49,6.44,10.94,11.29,2.45,4.85,3.68,10.46,3.68,16.84,0,4.56-.66,9.55-1.97,14.96-1.31,5.42-3.31,10.77-5.99,16.07-2.68,5.3-6.07,10.12-10.17,14.45-4.1,4.33-8.92,7.81-14.45,10.43-5.53,2.62-11.77,3.93-18.72,3.93ZM817.53,501.49c5.58,0,10.49-1.48,14.71-4.45,4.22-2.96,7.75-6.75,10.6-11.37,2.85-4.62,5.02-9.46,6.5-14.54,1.48-5.07,2.22-9.77,2.22-14.11s-.74-8.15-2.22-11.12c-1.48-2.96-3.59-5.22-6.33-6.75s-5.98-2.31-9.75-2.31c-5.7,0-10.72,1.45-15.05,4.36-4.33,2.91-7.95,6.64-10.86,11.2-2.91,4.56-5.1,9.35-6.58,14.36-1.48,5.02-2.22,9.63-2.22,13.85,0,4.45.77,8.24,2.31,11.37,1.54,3.14,3.73,5.5,6.58,7.1,2.85,1.6,6.21,2.39,10.09,2.39Z"/><path class="uuid-9acd07e5-dfdb-4d1a-9500-2aaf9ff0faa7" d="M889,514.48c-1.82,0-3.53-.4-5.13-1.2-1.6-.8-2-2.28-1.2-4.45l25.65-79.52c.8-2.28,1.74-3.76,2.82-4.45,1.08-.68,2.71-1.03,4.87-1.03,3.53,0,5.78.54,6.75,1.62.97,1.08,1.05,2.76.26,5.04l-4.28,13.34c2.74-3.31,5.56-6.24,8.46-8.81,2.91-2.57,5.81-4.73,8.72-6.5,2.91-1.77,5.78-3.11,8.64-4.02,2.85-.91,5.64-1.37,8.38-1.37s5.41.49,7.7,1.45c2.28.97,4.1,2.14,5.47,3.51,1.25,1.03,1.94,2.17,2.05,3.42.11,1.26-.46,2.91-1.71,4.96-1.26,1.94-2.48,3.14-3.68,3.59-1.2.46-2.42.29-3.68-.51-1.94-1.14-3.62-1.91-5.04-2.31-1.43-.4-2.94-.6-4.53-.6-3.19,0-6.53.86-10,2.57-3.48,1.71-7.01,4.13-10.6,7.27-3.59,3.14-7.04,6.87-10.35,11.2-3.31,4.33-6.33,9.18-9.06,14.54l-12.31,37.79c-.46,1.48-1.28,2.59-2.48,3.33-1.2.74-3.11,1.11-5.73,1.11Z"/></svg>