<?xml version="1.0" encoding="UTF-8"?><svg id="uuid-328aabda-e5c0-4b3e-94df-f509a5afeec1" xmlns="http://www.w3.org/2000/svg" xmlns:xlink="http://www.w3.org/1999/xlink" viewBox="0 0 1172.62 683.46"><defs><style>.uuid-351819a6-06c6-4f0f-a17c-760cf3a137d0{fill:#e23445;}.uuid-351819a6-06c6-4f0f-a17c-760cf3a137d0,.uuid-11481a78-6755-4537-b17b-9f59ddde6404,.uuid-495ea3b7-185b-47da-9247-dfb4aeb922b3{stroke:#140802;stroke-miterlimit:10;stroke-width:14.63px;}.uuid-11481a78-6755-4537-b17b-9f59ddde6404,.uuid-07f94b4b-d555-4af5-9e7d-95f6883f4846{fill:none;}.uuid-11481a78-6755-4537-b17b-9f59ddde6404,.uuid-495ea3b7-185b-47da-9247-dfb4aeb922b3{stroke-linecap:round;}.uuid-1553eb12-8963-46e5-81ef-198c80886d97{fill:#b2b09b;}.uuid-1553eb12-8963-46e5-81ef-198c80886d97,.uuid-07f94b4b-d555-4af5-9e7d-95f6883f4846,.uuid-474ffdf2-be90-41c7-86dc-23f5b3bff9f0,.uuid-71bde277-9e4d-4e90-ba7f-537655ce2bf4,.uuid-caa88d37-c6a5-47bf-870f-bee4ea59fc81,.uuid-c10ed84f-b1b2-4189-9004-d5c596861960{stroke-width:0px;}.uuid-3a82f77c-df1a-4898-a3e0-26cd87e25701{clip-path:url(#uuid-357d2574-9de8-492e-9de1-6a9dff15d2be);}.uuid-495ea3b7-185b-47da-9247-dfb4aeb922b3{fill:#edebd1;}.uuid-474ffdf2-be90-41c7-86dc-23f5b3bff9f0{fill:#140802;}.uuid-71bde277-9e4d-4e90-ba7f-537655ce2bf4{fill:#f4f4e4;}.uuid-caa88d37-c6a5-47bf-870f-bee4ea59fc81{fill:#381c10;}.uuid-454b94a5-068e-4c1d-9e59-3d1203e2685f{clip-path:url(#uuid-ff62121a-ea18-4013-8ac3-4e3f9988b638);}.uuid-c10ed84f-b1b2-4189-9004-d5c596861960{fill:#654434;}</style><clipPath id="uuid-357d2574-9de8-492e-9de1-6a9dff15d2be"><rect class="uuid-07f94b4b-d555-4af5-9e7d-95f6883f4846" x="756.93" y="117.96" width="260.11" height="183.61"/></clipPath><clipPath id="uuid-ff62121a-ea18-4013-8ac3-4e3f9988b638"><rect class="uuid-07f94b4b-d555-4af5-9e7d-95f6883f4846" x="345.38" y="117.96" width="260.11" height="183.61"/></clipPath></defs><rect class="uuid-caa88d37-c6a5-47bf-870f-bee4ea59fc81" x="0" width="1172.62" height="683.46" rx="46.51" ry="46.51"/><path class="uuid-71bde277-9e4d-4e90-ba7f-537655ce2bf4" d="M166.88,609.27c-3.18,0-6.27-.6-9.28-1.79-3.01-1.19-5.99-3.21-8.94-6.05-2.95-2.84-5.96-6.81-9.03-11.92-3.06-5.11-6.24-11.63-9.54-19.58l-11.07,34.57c-.57,1.48-1.42,2.58-2.55,3.32-1.14.74-3.01,1.11-5.62,1.11-1.82,0-3.49-.4-5.02-1.19-1.53-.79-1.96-2.27-1.28-4.43l45.98-143.04c.68-2.27,1.56-3.75,2.64-4.43,1.08-.68,2.75-1.02,5.02-1.02,2.38,0,4.09.43,5.11,1.28s1.64,1.79,1.87,2.81c.23,1.02.23,1.87,0,2.55l-23.5,72.71c4.77-4.99,9.76-8.91,14.98-11.75,5.22-2.84,10.27-4.26,15.16-4.26,4.43,0,8.09,1.39,10.98,4.17,2.9,2.78,4.34,6.61,4.34,11.49,0,3.97-.79,7.58-2.38,10.81s-3.77,6.16-6.56,8.77c-2.78,2.61-5.96,4.94-9.54,6.98-3.58,2.04-7.35,3.8-11.32,5.28-3.97,1.48-8,2.73-12.09,3.75,2.61,5.68,4.97,10.28,7.07,13.79,2.1,3.52,4.11,6.24,6.04,8.17,1.93,1.93,3.89,3.26,5.88,4,1.98.74,4.17,1.11,6.56,1.11,1.59,0,2.67.65,3.24,1.96.57,1.31.65,2.78.25,4.43-.4,1.65-1.22,3.12-2.47,4.43-1.25,1.3-2.89,1.96-4.94,1.96ZM133.17,560.74c5.11-.68,10.02-1.79,14.73-3.32,4.71-1.53,8.91-3.38,12.6-5.53,3.69-2.16,6.61-4.51,8.77-7.07,2.16-2.55,3.24-5.14,3.24-7.75,0-1.7-.49-3.01-1.45-3.92-.97-.91-2.36-1.36-4.17-1.36-2.61,0-5.59.94-8.94,2.81-3.35,1.87-6.95,4.54-10.81,8-3.86,3.46-7.89,7.58-12.09,12.35l-1.87,5.79Z"/><path class="uuid-71bde277-9e4d-4e90-ba7f-537655ce2bf4" d="M222.73,609.27c-4.2,0-7.66-.74-10.39-2.21-2.72-1.48-4.77-3.55-6.13-6.22-1.36-2.67-2.02-5.7-1.96-9.11.06-3.41.76-7.15,2.13-11.24l39.17-120.22c.79-2.27,1.73-3.75,2.81-4.43,1.08-.68,2.69-1.02,4.85-1.02,3.63,0,5.9.54,6.81,1.62.91,1.08,1.02,2.75.34,5.02l-39.34,120.56c-1.82,5.45-2.21,9.22-1.19,11.32,1.02,2.1,3.35,3.15,6.98,3.15,1.59,0,2.72.65,3.41,1.96.68,1.31.88,2.78.6,4.43-.28,1.65-1.11,3.12-2.47,4.43-1.36,1.3-3.24,1.96-5.62,1.96Z"/><path class="uuid-71bde277-9e4d-4e90-ba7f-537655ce2bf4" d="M279.44,609.27c-4.88,0-9.08-1.11-12.6-3.32-3.52-2.21-6.21-5.42-8.09-9.62-1.87-4.2-2.81-9.14-2.81-14.81,0-5,.71-10.39,2.13-16.18,1.42-5.79,3.58-11.47,6.47-17.03,2.9-5.56,6.53-10.64,10.9-15.24,4.37-4.6,9.51-8.26,15.41-10.98,5.9-2.72,12.6-4.09,20.09-4.09,4.88,0,9.65.94,14.3,2.81,4.65,1.87,8.85,4.23,12.6,7.07l-2.22,11.75c-4.88-3.18-9.22-5.33-13.03-6.47-3.8-1.13-7.58-1.7-11.32-1.7-5.79,0-10.87,1.08-15.24,3.24-4.37,2.16-8.12,5.05-11.24,8.68-3.12,3.64-5.68,7.61-7.66,11.92-1.99,4.32-3.47,8.6-4.43,12.86-.97,4.26-1.45,8.09-1.45,11.49s.51,6.44,1.53,8.77c1.02,2.33,2.5,4.12,4.43,5.36,1.93,1.25,4.31,1.87,7.15,1.87,3.97,0,8.06-1.42,12.26-4.26,4.2-2.84,8.43-6.95,12.69-12.35,4.26-5.39,8.31-11.78,12.17-19.16l3.75,7.49c-5,10.79-10.28,19.24-15.84,25.37-5.56,6.13-10.93,10.42-16.09,12.86-5.17,2.44-9.79,3.66-13.88,3.66ZM330.35,609.27c-4.32,0-7.83-.74-10.56-2.21-2.73-1.48-4.74-3.55-6.04-6.22-1.31-2.67-1.93-5.73-1.87-9.2.05-3.46.71-7.18,1.96-11.15l18.56-56.36c.79-2.27,1.73-3.75,2.81-4.43,1.08-.68,2.7-1.02,4.85-1.02,3.52,0,5.76.54,6.73,1.62.96,1.08,1.05,2.75.25,5.02l-18.56,56.7c-1.82,5.45-2.22,9.22-1.19,11.32,1.02,2.1,3.35,3.15,6.98,3.15,1.59,0,2.7.65,3.32,1.96.62,1.31.82,2.78.6,4.43-.23,1.65-.99,3.12-2.3,4.43-1.31,1.3-3.15,1.96-5.53,1.96Z"/><path class="uuid-71bde277-9e4d-4e90-ba7f-537655ce2bf4" d="M385.52,609.27c-4.88,0-9.08-1.11-12.6-3.32-3.52-2.21-6.22-5.42-8.09-9.62-1.87-4.2-2.81-9.14-2.81-14.81,0-5,.71-10.39,2.13-16.18,1.42-5.79,3.58-11.47,6.47-17.03,2.9-5.56,6.53-10.64,10.9-15.24s9.51-8.26,15.41-10.98c5.9-2.72,12.6-4.09,20.09-4.09,3.86,0,7.6.57,11.24,1.7,3.63,1.14,7.09,2.73,10.39,4.77l20.94-64.2c.79-2.27,1.73-3.75,2.81-4.43,1.08-.68,2.7-1.02,4.85-1.02,3.52,0,5.76.54,6.73,1.62.96,1.08,1.05,2.75.26,5.02l-39.34,120.56c-1.7,5.45-1.96,9.22-.77,11.32,1.19,2.1,4.28,3.15,9.28,3.15,1.36,0,2.35.65,2.98,1.96.62,1.31.79,2.78.51,4.43-.28,1.65-1.05,3.12-2.3,4.43-1.25,1.3-2.95,1.96-5.11,1.96-3.97,0-7.3-.51-9.96-1.53-2.67-1.02-4.77-2.41-6.3-4.17-1.53-1.76-2.64-3.77-3.32-6.04-.68-2.27-.97-4.6-.85-6.98l-.17-1.7c-3.86,5.22-7.83,9.31-11.92,12.26-4.09,2.95-7.98,5.05-11.67,6.3-3.69,1.25-6.96,1.87-9.79,1.87ZM390.29,595.65c3.97,0,7.95-1.3,11.92-3.92,3.97-2.61,7.98-6.36,12.01-11.24,4.03-4.88,7.97-10.73,11.83-17.54l8.86-27.25c-3.29-1.59-6.36-2.7-9.19-3.32-2.84-.62-5.68-.94-8.51-.94-5.68,0-10.73,1.08-15.16,3.24-4.43,2.16-8.2,5.05-11.32,8.68-3.12,3.64-5.68,7.61-7.66,11.92-1.99,4.32-3.44,8.6-4.34,12.86-.91,4.26-1.36,8.09-1.36,11.49s.48,6.44,1.45,8.77c.96,2.33,2.44,4.12,4.43,5.36,1.99,1.25,4.34,1.87,7.07,1.87Z"/><path class="uuid-71bde277-9e4d-4e90-ba7f-537655ce2bf4" d="M494.67,609.27c-4.88,0-9.08-1.11-12.6-3.32-3.52-2.21-6.21-5.42-8.09-9.62-1.87-4.2-2.81-9.14-2.81-14.81,0-5,.71-10.39,2.13-16.18,1.42-5.79,3.58-11.47,6.47-17.03,2.9-5.56,6.53-10.64,10.9-15.24s9.51-8.26,15.41-10.98c5.9-2.72,12.6-4.09,20.09-4.09,3.86,0,7.61.57,11.24,1.7,3.63,1.14,7.09,2.73,10.39,4.77l20.94-64.2c.79-2.27,1.73-3.75,2.81-4.43,1.08-.68,2.7-1.02,4.85-1.02,3.52,0,5.76.54,6.73,1.62.96,1.08,1.05,2.75.25,5.02l-39.34,120.56c-1.7,5.45-1.96,9.22-.76,11.32,1.19,2.1,4.28,3.15,9.28,3.15,1.36,0,2.35.65,2.98,1.96.62,1.31.79,2.78.51,4.43-.29,1.65-1.05,3.12-2.3,4.43-1.25,1.3-2.95,1.96-5.11,1.96-3.98,0-7.3-.51-9.96-1.53-2.67-1.02-4.77-2.41-6.3-4.17-1.53-1.76-2.64-3.77-3.32-6.04-.68-2.27-.97-4.6-.85-6.98l-.17-1.7c-3.86,5.22-7.83,9.31-11.92,12.26-4.09,2.95-7.98,5.05-11.67,6.3-3.69,1.25-6.95,1.87-9.79,1.87ZM499.44,595.65c3.97,0,7.95-1.3,11.92-3.92,3.97-2.61,7.97-6.36,12-11.24,4.03-4.88,7.97-10.73,11.84-17.54l8.85-27.25c-3.29-1.59-6.36-2.7-9.19-3.32-2.84-.62-5.68-.94-8.51-.94-5.68,0-10.73,1.08-15.15,3.24-4.43,2.16-8.2,5.05-11.32,8.68-3.12,3.64-5.68,7.61-7.66,11.92-1.99,4.32-3.44,8.6-4.34,12.86s-1.36,8.09-1.36,11.49.48,6.44,1.45,8.77c.96,2.33,2.44,4.12,4.43,5.36,1.99,1.25,4.34,1.87,7.07,1.87Z"/><path class="uuid-71bde277-9e4d-4e90-ba7f-537655ce2bf4" d="M644.53,609.27c-3.18,0-6.27-.6-9.28-1.79-3.01-1.19-5.99-3.21-8.94-6.05-2.95-2.84-5.96-6.81-9.02-11.92-3.07-5.11-6.25-11.63-9.54-19.58l-11.07,34.57c-.57,1.48-1.42,2.58-2.55,3.32-1.14.74-3.01,1.11-5.62,1.11-1.82,0-3.49-.4-5.02-1.19-1.53-.79-1.96-2.27-1.28-4.43l45.98-143.04c.68-2.27,1.56-3.75,2.64-4.43,1.08-.68,2.75-1.02,5.02-1.02,2.38,0,4.09.43,5.11,1.28,1.02.85,1.64,1.79,1.87,2.81.23,1.02.23,1.87,0,2.55l-23.5,72.71c4.77-4.99,9.76-8.91,14.99-11.75,5.22-2.84,10.27-4.26,15.15-4.26,4.43,0,8.09,1.39,10.98,4.17,2.9,2.78,4.34,6.61,4.34,11.49,0,3.97-.79,7.58-2.38,10.81-1.59,3.24-3.78,6.16-6.56,8.77-2.78,2.61-5.96,4.94-9.54,6.98-3.58,2.04-7.35,3.8-11.32,5.28-3.97,1.48-8,2.73-12.09,3.75,2.61,5.68,4.96,10.28,7.07,13.79,2.1,3.52,4.11,6.24,6.05,8.17,1.93,1.93,3.89,3.26,5.87,4,1.99.74,4.17,1.11,6.56,1.11,1.59,0,2.67.65,3.23,1.96.57,1.31.65,2.78.26,4.43-.4,1.65-1.22,3.12-2.47,4.43-1.25,1.3-2.9,1.96-4.94,1.96ZM610.81,560.74c5.11-.68,10.02-1.79,14.73-3.32,4.71-1.53,8.91-3.38,12.6-5.53,3.69-2.16,6.61-4.51,8.77-7.07,2.16-2.55,3.24-5.14,3.24-7.75,0-1.7-.48-3.01-1.45-3.92-.96-.91-2.36-1.36-4.17-1.36-2.61,0-5.59.94-8.94,2.81-3.35,1.87-6.96,4.54-10.81,8-3.86,3.46-7.89,7.58-12.09,12.35l-1.87,5.79Z"/><path class="uuid-71bde277-9e4d-4e90-ba7f-537655ce2bf4" d="M701.91,609.27c-4.88,0-9.08-1.11-12.6-3.32-3.52-2.21-6.22-5.42-8.09-9.62-1.87-4.2-2.81-9.14-2.81-14.81,0-5,.71-10.39,2.13-16.18,1.42-5.79,3.58-11.47,6.47-17.03,2.89-5.56,6.53-10.64,10.9-15.24,4.37-4.6,9.51-8.26,15.41-10.98s12.6-4.09,20.09-4.09c4.88,0,9.65.94,14.3,2.81,4.65,1.87,8.85,4.23,12.6,7.07l-2.21,11.75c-4.88-3.18-9.23-5.33-13.03-6.47-3.8-1.13-7.58-1.7-11.32-1.7-5.79,0-10.87,1.08-15.24,3.24-4.37,2.16-8.12,5.05-11.24,8.68-3.12,3.64-5.68,7.61-7.66,11.92-1.99,4.32-3.47,8.6-4.43,12.86-.97,4.26-1.45,8.09-1.45,11.49s.51,6.44,1.53,8.77c1.02,2.33,2.5,4.12,4.43,5.36,1.93,1.25,4.31,1.87,7.15,1.87,3.97,0,8.06-1.42,12.26-4.26,4.2-2.84,8.43-6.95,12.69-12.35,4.26-5.39,8.31-11.78,12.17-19.16l3.75,7.49c-5,10.79-10.28,19.24-15.84,25.37-5.56,6.13-10.93,10.42-16.09,12.86-5.17,2.44-9.79,3.66-13.88,3.66ZM752.83,609.27c-4.32,0-7.83-.74-10.56-2.21-2.72-1.48-4.74-3.55-6.04-6.22-1.31-2.67-1.93-5.73-1.87-9.2.05-3.46.71-7.18,1.96-11.15l18.56-56.36c.79-2.27,1.73-3.75,2.81-4.43,1.08-.68,2.69-1.02,4.85-1.02,3.52,0,5.76.54,6.73,1.62.96,1.08,1.05,2.75.25,5.02l-18.56,56.7c-1.82,5.45-2.21,9.22-1.19,11.32,1.02,2.1,3.35,3.15,6.98,3.15,1.59,0,2.7.65,3.32,1.96.62,1.31.82,2.78.6,4.43-.23,1.65-.99,3.12-2.3,4.43-1.31,1.3-3.15,1.96-5.53,1.96Z"/><path class="uuid-71bde277-9e4d-4e90-ba7f-537655ce2bf4" d="M848.69,609.27c-3.18,0-6.27-.6-9.28-1.79-3.01-1.19-5.99-3.21-8.94-6.05-2.95-2.84-5.96-6.81-9.03-11.92-3.06-5.11-6.24-11.63-9.54-19.58l-11.07,34.57c-.57,1.48-1.42,2.58-2.55,3.32-1.14.74-3.01,1.11-5.62,1.11-1.82,0-3.49-.4-5.02-1.19-1.53-.79-1.96-2.27-1.28-4.43l45.98-143.04c.68-2.27,1.56-3.75,2.64-4.43,1.08-.68,2.75-1.02,5.02-1.02,2.38,0,4.09.43,5.11,1.28s1.64,1.79,1.87,2.81c.23,1.02.23,1.87,0,2.55l-23.5,72.71c4.77-4.99,9.76-8.91,14.98-11.75,5.22-2.84,10.27-4.26,15.16-4.26,4.43,0,8.09,1.39,10.98,4.17,2.9,2.78,4.34,6.61,4.34,11.49,0,3.97-.79,7.58-2.38,10.81s-3.77,6.16-6.56,8.77c-2.78,2.61-5.96,4.94-9.54,6.98-3.58,2.04-7.35,3.8-11.32,5.28-3.97,1.48-8,2.73-12.09,3.75,2.61,5.68,4.96,10.28,7.07,13.79,2.1,3.52,4.11,6.24,6.04,8.17,1.93,1.93,3.89,3.26,5.88,4,1.98.74,4.17,1.11,6.56,1.11,1.59,0,2.66.65,3.23,1.96.57,1.31.65,2.78.25,4.43-.4,1.65-1.22,3.12-2.47,4.43-1.25,1.3-2.9,1.96-4.94,1.96ZM814.98,560.74c5.11-.68,10.02-1.79,14.73-3.32,4.71-1.53,8.91-3.38,12.6-5.53,3.69-2.16,6.61-4.51,8.77-7.07,2.16-2.55,3.24-5.14,3.24-7.75,0-1.7-.49-3.01-1.45-3.92-.97-.91-2.36-1.36-4.17-1.36-2.61,0-5.59.94-8.94,2.81-3.35,1.87-6.95,4.54-10.81,8-3.86,3.46-7.89,7.58-12.09,12.35l-1.87,5.79Z"/><path class="uuid-71bde277-9e4d-4e90-ba7f-537655ce2bf4" d="M916.64,609.62c-7.04,0-13-1.42-17.88-4.26-4.88-2.84-8.54-6.78-10.98-11.84-2.44-5.05-3.66-10.75-3.66-17.11,0-6.02,1.08-12.4,3.24-19.16,2.16-6.75,5.36-13.11,9.62-19.07s9.59-10.81,16.01-14.56c6.41-3.75,13.88-5.62,22.39-5.62,7.04,0,12.97,1.34,17.8,4,4.82,2.67,8.45,6.41,10.9,11.24,2.44,4.83,3.66,10.42,3.66,16.77,0,4.54-.65,9.51-1.96,14.9-1.31,5.39-3.3,10.73-5.96,16.01-2.67,5.28-6.05,10.08-10.13,14.39-4.09,4.32-8.88,7.78-14.39,10.39-5.51,2.61-11.72,3.92-18.65,3.92ZM918.34,595.99c5.56,0,10.44-1.48,14.65-4.43,4.2-2.95,7.72-6.73,10.56-11.32,2.84-4.6,5-9.42,6.47-14.47,1.47-5.05,2.21-9.73,2.21-14.05s-.74-8.12-2.21-11.07c-1.48-2.95-3.58-5.2-6.3-6.73-2.72-1.53-5.96-2.3-9.7-2.3-5.68,0-10.67,1.45-14.99,4.34-4.31,2.89-7.92,6.61-10.81,11.15-2.89,4.54-5.08,9.31-6.56,14.3-1.48,5-2.22,9.6-2.22,13.79,0,4.43.77,8.2,2.3,11.32,1.53,3.12,3.72,5.48,6.56,7.07,2.84,1.59,6.19,2.38,10.05,2.38Z"/><path class="uuid-71bde277-9e4d-4e90-ba7f-537655ce2bf4" d="M989.52,608.93c-1.82,0-3.52-.4-5.11-1.19-1.59-.79-1.99-2.27-1.19-4.43l25.54-79.18c.79-2.27,1.73-3.75,2.81-4.43,1.08-.68,2.7-1.02,4.85-1.02,3.52,0,5.76.54,6.73,1.62.96,1.08,1.05,2.75.26,5.02l-4.26,13.28c2.72-3.29,5.53-6.22,8.43-8.77,2.9-2.55,5.79-4.71,8.68-6.47,2.9-1.76,5.76-3.09,8.6-4,2.84-.91,5.62-1.36,8.34-1.36s5.39.49,7.66,1.45c2.27.97,4.09,2.13,5.45,3.49,1.25,1.02,1.93,2.16,2.04,3.41.11,1.25-.45,2.9-1.7,4.94-1.25,1.93-2.47,3.12-3.66,3.58-1.19.46-2.41.28-3.66-.51-1.93-1.13-3.61-1.9-5.02-2.3-1.42-.4-2.93-.6-4.51-.6-3.18,0-6.5.85-9.96,2.55-3.46,1.7-6.98,4.12-10.56,7.24-3.58,3.12-7.01,6.84-10.3,11.15-3.29,4.32-6.3,9.14-9.02,14.47l-12.26,37.63c-.45,1.48-1.28,2.58-2.47,3.32-1.19.74-3.09,1.11-5.7,1.11Z"/><ellipse class="uuid-71bde277-9e4d-4e90-ba7f-537655ce2bf4" cx="886.99" cy="229.32" rx="181.39" ry="155.47"/><path class="uuid-1553eb12-8963-46e5-81ef-198c80886d97" d="M886.99,300.8c-53.1,0-94.5-8.1-108.41-55.34,0,0,13.04,74.76,108.41,74.76,95.37,0,108.41-74.76,108.41-74.76-13.57,47.05-55.31,55.34-108.41,55.34Z"/><g class="uuid-3a82f77c-df1a-4898-a3e0-26cd87e25701"><path class="uuid-c10ed84f-b1b2-4189-9004-d5c596861960" d="M1008.02,233.59v36.44c0,12.38-9.96,22.42-22.23,22.42h-197.6c-12.27,0-22.23-10.04-22.23-22.42v-41.63c0-4.89,1.56-9.62,4.48-13.5l59.05-78.92c6.86-9.16,19.46-11.62,29.21-5.7l138.55,84.14c6.68,4.07,10.77,11.35,10.77,19.21v-.03Z"/><path class="uuid-474ffdf2-be90-41c7-86dc-23f5b3bff9f0" d="M822.86,130.95c9.41-12.57,26.74-15.96,40.13-7.83l138.56,84.14h0c9.15,5.58,14.77,15.56,14.78,26.33v36.44c0,16.96-13.66,30.76-30.54,30.77h-197.59c-16.88,0-30.54-13.81-30.54-30.77v-41.63c0-6.68,2.15-13.2,6.17-18.54l59.04-78.91ZM854.4,137.41c-6.09-3.69-13.97-2.16-18.27,3.59l-59.05,78.92h-.01c-.98,1.32-1.69,2.78-2.17,4.33h221.25c-.92-1.03-1.97-1.95-3.18-2.69l-138.56-84.15Z"/></g><path class="uuid-495ea3b7-185b-47da-9247-dfb4aeb922b3" d="M964.15,182.13c8.32-17.26,3.27-35.27-25.54-44.47-18.24-5.83-20.55-23.09-21.99-35.16-.16-1.32-1.79-1.82-2.69-.84-20.85,22.8-51.25,28.66-64.51,53.85-16.32,31.03,11.45,43.96,42.52,45.85,21,1.28,62.37,1.15,72.19-19.23Z"/><ellipse class="uuid-71bde277-9e4d-4e90-ba7f-537655ce2bf4" cx="475.44" cy="229.32" rx="181.39" ry="155.47"/><path class="uuid-1553eb12-8963-46e5-81ef-198c80886d97" d="M475.44,300.8c-53.1,0-94.5-8.1-108.41-55.34,0,0,13.04,74.76,108.41,74.76,95.37,0,108.41-74.76,108.41-74.76-13.57,47.05-55.31,55.34-108.41,55.34Z"/><g class="uuid-454b94a5-068e-4c1d-9e59-3d1203e2685f"><path class="uuid-c10ed84f-b1b2-4189-9004-d5c596861960" d="M596.47,233.59v36.44c0,12.38-9.96,22.42-22.23,22.42h-197.6c-12.27,0-22.23-10.04-22.23-22.42v-41.63c0-4.89,1.56-9.62,4.48-13.5l59.05-78.92c6.86-9.16,19.46-11.62,29.21-5.7l138.55,84.14c6.68,4.07,10.77,11.35,10.77,19.21v-.03Z"/><path class="uuid-474ffdf2-be90-41c7-86dc-23f5b3bff9f0" d="M411.3,130.95c9.41-12.57,26.74-15.96,40.13-7.83l138.56,84.14h0c9.15,5.58,14.77,15.56,14.78,26.33v36.44c0,16.96-13.66,30.76-30.54,30.77h-197.59c-16.88,0-30.54-13.81-30.54-30.77v-41.63c0-6.68,2.15-13.2,6.17-18.54l59.04-78.91ZM442.85,137.41c-6.09-3.69-13.97-2.16-18.27,3.59l-59.05,78.92h-.01c-.98,1.32-1.69,2.78-2.17,4.33h221.25c-.92-1.03-1.97-1.95-3.18-2.69l-138.56-84.15Z"/></g><circle class="uuid-351819a6-06c6-4f0f-a17c-760cf3a137d0" cx="489.72" cy="159.71" r="39.35"/><path class="uuid-11481a78-6755-4537-b17b-9f59ddde6404" d="M491.04,144.84c-13.21-26.12,6.25-49.74,27.4-51.25"/><path class="uuid-71bde277-9e4d-4e90-ba7f-537655ce2bf4" d="M104.25,103.03c0-8.15,4.07-12.23,12.23-12.23h96.15c8.15,0,12.23,4.08,12.23,12.23,0,17.08-.08,34.13-.23,51.13-.16,17.01-.24,34.05-.24,51.13,0,26.02.15,52.11.47,78.29.31,26.18.47,52.35.47,78.52,0,8.15-4.08,12.23-12.23,12.23h-60.42c-8.15,0-12.23-4.07-12.23-12.23,0-28.99.12-57.95.35-86.87.24-28.92.35-57.79.35-86.63,0-2.97-1.84-4.47-5.53-4.47s-7.92.23-12.7.7c-4.78.47-9.01,0-12.7-1.41-3.68-1.41-5.53-5.01-5.53-10.81,0-11.6-.08-23.19-.23-34.79-.16-11.6-.23-23.19-.23-34.79Z"/></svg>