<?xml version="1.0" encoding="UTF-8"?><svg id="Layer_2" xmlns="http://www.w3.org/2000/svg" viewBox="0 0 992 19.91"><path d="M992,5.63c-7.84,0-6.98,8.65-15.09,8.65h.25c-8.11,0-7.25-8.65-15.09-8.65h0c-7.84,0-6.98,8.64-15.09,8.64-8.11,0-7.25-8.65-15.09-8.65-7.84,0-6.98,8.65-15.09,8.65h.25c-8.11,0-7.25-8.65-15.09-8.65h-.02c-7.84,0-6.98,8.65-15.09,8.65-8.11,0-7.25-8.65-15.09-8.65-7.84,0-6.98,8.65-15.09,8.65h.25c-8.11,0-7.25-8.65-15.09-8.65h0c-7.84,0-6.98,8.64-15.09,8.64-8.11,0-7.25-8.65-15.09-8.65-7.84,0-6.98,8.65-15.09,8.65h.25c-8.11,0-7.25-8.65-15.09-8.65h-.02c-7.84,0-6.98,8.65-15.09,8.65-8.11,0-7.25-8.65-15.09-8.65-7.84,0-6.98,8.65-15.09,8.65h.25c-8.11,0-7.25-8.65-15.09-8.65h0c-7.84,0-6.98,8.64-15.09,8.64-8.11,0-7.25-8.65-15.09-8.65-7.84,0-6.98,8.65-15.09,8.65h.25c-8.11,0-7.25-8.65-15.09-8.65h-.02c-7.84,0-6.98,8.65-15.09,8.65-8.11,0-7.25-8.65-15.09-8.65-7.84,0-6.98,8.65-15.09,8.65h.25c-8.11,0-7.25-8.65-15.09-8.65h0c-7.84,0-6.98,8.64-15.09,8.64-8.11,0-7.25-8.65-15.09-8.65-7.84,0-6.98,8.65-15.09,8.65h.25c-8.11,0-7.25-8.65-15.09-8.65h-.02c-7.84,0-6.98,8.65-15.09,8.65-8.11,0-7.25-8.65-15.09-8.65-7.84,0-6.98,8.65-15.09,8.65h.25c-8.11,0-7.25-8.65-15.09-8.65h0c-7.84,0-6.98,8.64-15.09,8.64-8.11,0-7.25-8.65-15.09-8.65-7.84,0-6.98,8.65-15.09,8.65h.25c-8.11,0-7.25-8.65-15.09-8.65h-.02c-7.84,0-6.98,8.65-15.09,8.65-8.11,0-7.25-8.65-15.09-8.65-7.84,0-6.98,8.65-15.09,8.65h.25c-8.11,0-7.25-8.65-15.09-8.65h0c-7.84,0-6.98,8.64-15.09,8.64-8.11,0-7.25-8.65-15.09-8.65-7.84,0-6.98,8.65-15.09,8.65h.25c-8.11,0-7.25-8.65-15.09-8.65h-.02c-7.84,0-6.98,8.65-15.09,8.65-8.11,0-7.25-8.65-15.09-8.65-7.84,0-6.98,8.65-15.09,8.65h.25c-8.11,0-7.25-8.65-15.09-8.65h0c-7.84,0-6.98,8.64-15.09,8.64-8.11,0-7.25-8.65-15.09-8.65-7.84,0-6.98,8.65-15.09,8.65h.25c-8.11,0-7.25-8.65-15.09-8.65h-.02c-7.84,0-6.98,8.65-15.09,8.65-8.11,0-7.25-8.65-15.09-8.65-7.84,0-6.98,8.65-15.09,8.65h.25c-8.11,0-7.25-8.65-15.09-8.65h0c-7.84,0-6.98,8.64-15.09,8.64-8.11,0-7.25-8.65-15.09-8.65-7.84,0-6.98,8.65-15.09,8.65h.25c-8.11,0-7.25-8.65-15.09-8.65h-.02c-7.84,0-6.98,8.65-15.09,8.65-8.11,0-7.25-8.65-15.09-8.65-7.84,0-6.98,8.65-15.09,8.65h.25c-8.11,0-7.25-8.65-15.09-8.65" style="fill:none; stroke:#ff909f; stroke-miterlimit:10; stroke-width:.96px;"/></svg>