<?xml version="1.0" encoding="UTF-8"?><svg id="Layer_2" xmlns="http://www.w3.org/2000/svg" viewBox="0 0 480 19.91"><path d="M480,5.63h0c-7.83,0-6.97,8.64-15.06,8.64-8.09,0-7.23-8.65-15.06-8.65-7.83,0-6.97,8.65-15.06,8.65h.25c-8.09,0-7.23-8.65-15.06-8.65h-.02c-7.83,0-6.97,8.65-15.06,8.65-8.09,0-7.23-8.65-15.06-8.65-7.83,0-6.97,8.65-15.06,8.65h.25c-8.09,0-7.23-8.65-15.06-8.65h0c-7.83,0-6.97,8.64-15.06,8.64-8.09,0-7.23-8.65-15.06-8.65-7.83,0-6.97,8.65-15.06,8.65h.25c-8.09,0-7.23-8.65-15.06-8.65h-.02c-7.83,0-6.97,8.65-15.06,8.65-8.09,0-7.23-8.65-15.06-8.65-7.83,0-6.97,8.65-15.06,8.65h.25c-8.09,0-7.23-8.65-15.06-8.65h0c-7.83,0-6.97,8.64-15.06,8.64-8.09,0-7.23-8.65-15.06-8.65-7.83,0-6.97,8.65-15.06,8.65h.25c-8.09,0-7.23-8.65-15.06-8.65h-.02c-7.83,0-6.97,8.65-15.06,8.65-8.09,0-7.23-8.65-15.06-8.65-7.83,0-6.97,8.65-15.06,8.65h.25c-8.09,0-7.23-8.65-15.06-8.65h0c-7.83,0-6.97,8.64-15.06,8.64-8.09,0-7.23-8.65-15.06-8.65-7.83,0-6.97,8.65-15.06,8.65h.25c-8.09,0-7.23-8.65-15.06-8.65h-.02c-7.83,0-6.97,8.65-15.06,8.65-8.09,0-7.23-8.65-15.06-8.65-7.83,0-6.97,8.65-15.06,8.65h.25c-8.09,0-7.23-8.65-15.06-8.65" style="fill:none; stroke:#ff909f; stroke-miterlimit:10; stroke-width:.95px;"/></svg>