<?xml version="1.0" encoding="UTF-8"?><svg id="uuid-a4e10235-5d8f-4579-9c3e-f486bca0ab88" xmlns="http://www.w3.org/2000/svg" xmlns:xlink="http://www.w3.org/1999/xlink" viewBox="0 0 223.21 191.32"><defs><style>.uuid-162076cb-ec41-4f72-8d21-155102305d0c{clip-path:url(#uuid-f542872c-a57b-4599-82ea-04d48a1d37eb);}.uuid-6f0aac63-6b7a-432a-94a6-b184f8da1a7a{fill:none;}.uuid-6f0aac63-6b7a-432a-94a6-b184f8da1a7a,.uuid-722bb93e-2e2f-49b1-a491-bd05574f4930,.uuid-98ccd26c-188e-49b3-a1ab-0b3515dd9ed6,.uuid-f13c0024-c71d-495a-92bc-a401dea49893{stroke-width:0px;}.uuid-722bb93e-2e2f-49b1-a491-bd05574f4930{fill:#140802;}.uuid-98ccd26c-188e-49b3-a1ab-0b3515dd9ed6{fill:#f4f4e4;}.uuid-f13c0024-c71d-495a-92bc-a401dea49893{fill:#654434;}</style><clipPath id="uuid-f542872c-a57b-4599-82ea-04d48a1d37eb"><rect class="uuid-6f0aac63-6b7a-432a-94a6-b184f8da1a7a" x="31.58" y="27.14" width="160.04" height="112.97"/></clipPath></defs><ellipse class="uuid-98ccd26c-188e-49b3-a1ab-0b3515dd9ed6" cx="111.6" cy="95.66" rx="111.6" ry="95.66"/><g class="uuid-162076cb-ec41-4f72-8d21-155102305d0c"><path class="uuid-f13c0024-c71d-495a-92bc-a401dea49893" d="M186.07,98.29v22.42c0,7.62-6.13,13.8-13.68,13.8H50.81c-7.55,0-13.68-6.18-13.68-13.8v-25.61c0-3.01.96-5.92,2.76-8.31l36.33-48.56c4.22-5.64,11.97-7.15,17.97-3.51l85.25,51.77c4.11,2.5,6.63,6.98,6.63,11.82v-.02Z"/><path class="uuid-722bb93e-2e2f-49b1-a491-bd05574f4930" d="M72.14,35.13c5.79-7.74,16.45-9.82,24.69-4.82l85.25,51.77h0c5.63,3.44,9.08,9.57,9.09,16.2v22.42c0,10.44-8.4,18.93-18.79,18.93H50.81c-10.39,0-18.79-8.49-18.79-18.93v-25.61c0-4.11,1.33-8.12,3.8-11.41l36.32-48.55ZM91.55,39.11c-3.75-2.27-8.6-1.33-11.24,2.21l-36.33,48.56h0c-.6.81-1.04,1.71-1.33,2.67h136.13c-.56-.64-1.21-1.2-1.96-1.65l-85.25-51.78Z"/></g></svg>