<svg width="17" height="12" viewBox="0 0 17 12" fill="none" xmlns="http://www.w3.org/2000/svg">
<path fill-rule="evenodd" clip-rule="evenodd" d="M4.74219 1.17917C5.19044 0.580261 6.01438 0.41941 6.65137 0.806123L14.3799 5.49948C13.4681 6.1271 13 7.24319 13 8.23581C11.0001 7.23585 9.00014 9.00052 9 10.7358C9 10.9826 9.01321 11.2048 9.03125 11.4057H2.04297C1.24084 11.4057 0.589844 10.749 0.589844 9.93991V7.21921C0.589872 6.89997 0.692137 6.5902 0.882812 6.3364L4.74219 1.17917Z" fill="#654434"/>
<path d="M4.26172 0.799927C4.877 -0.0214109 6.0094 -0.242965 6.88477 0.288208L14.9619 5.1925C14.5679 5.34327 14.2328 5.57557 13.9561 5.85754L6.32324 1.2218C5.92527 0.980753 5.41006 1.08115 5.12891 1.45618L1.26953 6.61438L1.26855 6.61536C1.20486 6.70023 1.15781 6.79647 1.12695 6.89758H13.2734C13.092 7.33234 13 7.79597 13 8.23547C11.0001 7.23551 9.00016 9.00019 9 10.7355C9 11.2055 9.03595 11.5873 9.09668 11.9005H1.99609C0.892721 11.9005 0.000133597 10.9983 0 9.88977V7.16907C0.000193918 6.73277 0.140918 6.30646 0.40332 5.95715L4.26172 0.799927Z" fill="#140802"/>
<path d="M12.5 8.00073C13 5.50073 14 5.33407 14.5 5.00073" stroke="black"/>
<path d="M12.5 11.0012L12 9.50073L14 10.0012L12.5 11.0012Z" fill="#31180C"/>
<path d="M15.5 10.0009L15 8.00073L16.5 8.50073V9.50073L15.5 10.0009Z" fill="#31180C"/>
<path d="M15 11.0007H16V12.0007H15V11.0007Z" fill="#31180C"/>
</svg>
